<?xml version="1.0" encoding="UTF-8"?>
<!DOCTYPE svg PUBLIC "-//W3C//DTD SVG 1.1//EN" "http://www.w3.org/Graphics/SVG/1.1/DTD/svg11.dtd">
<!-- Creator: CorelDRAW 2018 (64 Bit) -->
<svg xmlns="http://www.w3.org/2000/svg" xml:space="preserve" width="138px" height="148px" version="1.1" style="shape-rendering:geometricPrecision; text-rendering:geometricPrecision; image-rendering:optimizeQuality; fill-rule:evenodd; clip-rule:evenodd"
viewBox="0 0 9.28 9.94"
 xmlns:xlink="http://www.w3.org/1999/xlink">
 <defs>
  <style type="text/css">
   <![CDATA[
    .fil2 {fill:#FEFEFE;fill-rule:nonzero}
    .fil1 {fill:#2E8CCB;fill-rule:nonzero}
    .fil0 {fill:#201E1E;fill-rule:nonzero}
   ]]>
  </style>
 </defs>
 <g id="Capa_x0020_1">
  <metadata id="CorelCorpID_0Corel-Layer"/>
  <g id="_1879593574256">
   <g>
    <path class="fil0" d="M4.65 0.25c0.45,0 1.97,0.09 2.94,0.46 1.09,0.41 1.6,1.14 1.4,2.22 -0.21,1.07 -0.68,3.72 -1.91,5.47 -0.6,0.87 -1.52,1.3 -2.43,1.3 -0.92,0 -1.83,-0.43 -2.44,-1.3 -1.23,-1.75 -1.69,-4.4 -1.9,-5.47 -0.21,-1.08 0.3,-1.81 1.39,-2.22 0.98,-0.37 2.5,-0.46 2.95,-0.46z"/>
    <path class="fil1" d="M4.64 0c-0.46,0 -2,0.09 -3,0.46 -0.61,0.24 -1.06,0.57 -1.33,0.99 -0.29,0.44 -0.38,0.98 -0.26,1.59l0.03 0.14c0.22,1.18 0.7,3.64 1.89,5.34 0.63,0.9 1.6,1.42 2.67,1.42l0 0c1.07,0 2.04,-0.52 2.67,-1.42 1.19,-1.7 1.66,-4.16 1.89,-5.34l0.03 -0.14c0.11,-0.61 0.03,-1.15 -0.26,-1.59 -0.27,-0.42 -0.72,-0.75 -1.33,-0.99 -1,-0.37 -2.54,-0.46 -3,-0.46zm0 0.36c0.44,0 1.92,0.08 2.87,0.44 1.07,0.4 1.57,1.12 1.36,2.17 -0.2,1.05 -0.65,3.63 -1.85,5.34 -0.6,0.85 -1.49,1.27 -2.38,1.27 -0.89,0 -1.79,-0.42 -2.38,-1.27 -1.2,-1.71 -1.65,-4.29 -1.86,-5.34 -0.2,-1.05 0.3,-1.77 1.37,-2.17 0.95,-0.36 2.43,-0.44 2.87,-0.44z"/>
    <g>
     <path class="fil1" d="M2.06 6.88c0.01,0 0.02,-0.01 0.03,-0.03 0.01,-0.01 0.01,-0.03 0,-0.04l-0.02 -0.07c0,0 -0.01,0 -0.01,0l-0.28 0.1c-0.01,0 -0.01,0.01 -0.01,0.01l0.03 0.07c0,0.01 0.01,0.02 0.03,0.03 0.01,0.01 0.03,0.01 0.04,0l0.19 -0.07zm-0.25 0.12c-0.03,-0.01 -0.05,-0.03 -0.06,-0.06l-0.05 -0.13c0,0 0,0 0.01,0l0.38 -0.14c0,-0.01 0,0 0.01,0l0.04 0.12c0.01,0.03 0.01,0.06 0,0.09 -0.01,0.03 -0.04,0.05 -0.07,0.06l-0.17 0.06c-0.03,0.01 -0.06,0.02 -0.09,0z"/>
     <path class="fil1" d="M1.93 7.33l-0.1 -0.2c0,0 0,0 0,-0.01l0.37 -0.18c0,0 0,0 0,0.01l0.1 0.19c0,0.01 0,0.01 0,0.01l-0.04 0.02c0,0 0,0 -0.01,0l-0.07 -0.15c0,0 0,0 -0.01,0l-0.1 0.05c0,0 0,0 0,0.01l0.06 0.12c0,0 0,0 0,0l-0.04 0.02c0,0 -0.01,0 -0.01,0l-0.06 -0.12c0,0 0,0 -0.01,0l-0.1 0.05c-0.01,0 -0.01,0.01 -0.01,0.01l0.07 0.14c0.01,0.01 0.01,0.01 0,0.01l-0.03 0.02c-0.01,0 -0.01,0 -0.01,0z"/>
     <path class="fil1" d="M2.17 7.71l-0.12 -0.18c-0.01,-0.01 -0.01,-0.01 0,-0.01l0.33 -0.23c0,-0.01 0.01,-0.01 0.01,0l0.03 0.04c0,0 0,0 -0.01,0l-0.29 0.2c0,0.01 0,0.01 0,0.01l0.09 0.13c0.01,0.01 0.01,0.01 0,0.01l-0.03 0.03c0,0 -0.01,0 -0.01,0z"/>
     <path class="fil1" d="M2.52 7.68c0,0 0,0 0.01,-0.01 0,0 0,-0.01 0.01,-0.01l-0.01 0 -0.02 0.01 -0.12 0.06 0 0 0 0c0,0 0,0 0,0.01l0.04 0.05c0.01,0 0.01,0 0.01,0l0 0 0 0 0.08 -0.11zm-0.12 0.29l0 0c-0.01,0 -0.01,0 -0.01,-0.01l-0.03 -0.03 0 -0.01 0.05 -0.07 0 -0.01 -0.07 -0.08 -0.01 0 -0.08 0.04 -0.01 -0.01 -0.03 -0.03c0,-0.01 0,-0.01 0,-0.01l0 0 0 0 0.39 -0.18 0 0.01 0.03 0.02 0 0.01 -0.23 0.35 0 0.01z"/>
     <path class="fil1" d="M2.74 8.21c0,0 0,0 -0.01,0.01 -0.01,0 -0.02,0 -0.03,0 -0.03,0 -0.06,-0.01 -0.08,-0.03l-0.02 -0.01c-0.01,-0.02 -0.02,-0.03 -0.03,-0.04 0,-0.01 -0.01,-0.03 -0.01,-0.04 0,-0.02 0,-0.03 0.01,-0.04 0,-0.02 0.01,-0.03 0.02,-0.04l0.14 -0.16c0.01,-0.01 0.02,-0.02 0.03,-0.03 0.02,0 0.03,-0.01 0.04,-0.01 0.02,0 0.03,0 0.05,0.01 0.01,0 0.02,0.01 0.04,0.02l0.01 0.02c0.01,0.01 0.02,0.02 0.03,0.03 0.01,0.01 0.01,0.02 0.01,0.03 0.01,0.02 0.01,0.03 0.01,0.03 0,0.01 -0.01,0.02 -0.01,0.03l-0.01 0 -0.04 -0.01 -0.01 -0.01c0,0 0,0 0,0 0,-0.01 0,-0.03 0,-0.04 0,-0.01 0,-0.02 -0.01,-0.02l-0.02 -0.02c-0.01,-0.01 -0.02,-0.01 -0.04,-0.01 -0.02,0 -0.03,0.01 -0.04,0.02l-0.14 0.15c-0.01,0.02 -0.01,0.03 -0.01,0.05 0,0.01 0.01,0.03 0.02,0.04l0.01 0.01c0.01,0 0.01,0.01 0.02,0.01 0.01,0 0.01,0 0.02,0 0.01,0 0.02,0 0.02,0 0.01,0 0.01,-0.01 0.02,0l0 0 0.01 0.04 0 0.01z"/>
     <path class="fil1" d="M2.79 8.32l-0.03 -0.02c-0.01,-0.01 -0.01,-0.01 0,-0.01l0.24 -0.33c0,0 0.01,0 0.01,0l0.04 0.03c0,0 0,0.01 0,0.01l-0.25 0.32c0,0 0,0.01 -0.01,0z"/>
     <path class="fil1" d="M3.12 8.47c-0.01,0.01 -0.03,0.01 -0.04,0.01 -0.01,0.01 -0.03,0.01 -0.04,0 -0.02,0 -0.03,0 -0.05,-0.01l-0.01 -0.01c-0.02,-0.01 -0.03,-0.02 -0.04,-0.04 -0.01,-0.01 -0.02,-0.02 -0.02,-0.04 0,-0.01 0,-0.02 0,-0.04 0,-0.01 0.01,-0.03 0.02,-0.04l0.16 -0.26c0,0 0.01,0 0.01,0l0.04 0.02c0,0.01 0,0.01 0,0.01l-0.16 0.26c-0.01,0.01 -0.01,0.03 -0.01,0.04 0,0.02 0.01,0.03 0.02,0.04l0.02 0.01c0.01,0.01 0.03,0.01 0.04,0.01 0.02,-0.01 0.03,-0.01 0.04,-0.03l0.16 -0.26c0.01,0 0.01,0 0.01,0l0.04 0.03c0.01,0 0.01,0 0,0.01l-0.16 0.25c-0.01,0.02 -0.02,0.03 -0.03,0.04z"/>
     <path class="fil1" d="M3.5 8.39c0,-0.02 0.01,-0.03 0,-0.05 0,-0.01 -0.01,-0.03 -0.03,-0.03l-0.06 -0.03c-0.01,-0.01 -0.01,0 -0.01,0l-0.13 0.27c0,0 0,0 0,0.01l0.07 0.03c0.01,0 0.02,0.01 0.04,0 0.01,-0.01 0.03,-0.02 0.03,-0.03l0.09 -0.17zm-0.1 0.25c-0.03,0.01 -0.06,0.01 -0.09,0l-0.11 -0.06c-0.01,0 -0.01,-0.01 -0.01,-0.01l0.18 -0.36c0,-0.01 0,-0.01 0.01,-0.01l0.11 0.06c0.04,0.01 0.06,0.04 0.07,0.06 0.01,0.03 0,0.06 -0.01,0.1l-0.08 0.16c-0.02,0.03 -0.04,0.05 -0.07,0.06z"/>
     <path class="fil1" d="M3.7 8.49c0,0 0,-0.01 0,-0.01 0,-0.01 0.01,-0.01 0.01,-0.02l-0.01 0 -0.01 0.03 -0.08 0.1 0 0 0 0c0,0.01 0,0.01 0.01,0.01l0.06 0.03c0.01,0 0.01,0 0.01,-0.01l0 0 0 0 0.01 -0.13zm0.04 0.31l0 0c0,0 -0.01,0 -0.01,0l-0.05 -0.02c0,0 0,0 0,0l0.01 -0.09c0,-0.01 -0.01,-0.01 -0.01,-0.01l-0.1 -0.03c0,0 0,0 0,0l-0.06 0.07c0,0.01 0,0.01 0,0l-0.05 -0.01c0,0 -0.01,-0.01 0,-0.01l0 0 0 0 0.25 -0.34c0,0 0,-0.01 0,0l0.04 0.01c0,0 0,0 0,0l-0.02 0.42 0 0.01z"/>
     <path class="fil1" d="M4.06 8.57c0.01,-0.02 0,-0.03 0,-0.04 -0.01,-0.02 -0.02,-0.03 -0.04,-0.03l-0.07 -0.02c0,0 -0.01,0 -0.01,0.01l-0.07 0.29c0,0 0,0 0.01,0.01l0.07 0.01c0.01,0.01 0.03,0 0.04,-0.01 0.01,0 0.02,-0.02 0.03,-0.03l0.04 -0.19zm-0.04 0.27c-0.02,0.02 -0.05,0.02 -0.09,0.01l-0.12 -0.03c0,0 -0.01,0 -0.01,0l0.1 -0.4c0,0 0,0 0.01,0l0.12 0.03c0.04,0.01 0.06,0.02 0.08,0.05 0.01,0.02 0.01,0.05 0.01,0.09l-0.05 0.17c0,0.04 -0.02,0.07 -0.05,0.08z"/>
     <path class="fil1" d="M4.49 8.63c0,-0.02 0,-0.03 -0.01,-0.05 -0.01,-0.01 -0.03,-0.02 -0.04,-0.02l-0.07 0c-0.01,0 -0.01,0 -0.01,0l-0.02 0.3c0,0.01 0,0.01 0,0.01l0.07 0c0.02,0 0.03,0 0.05,-0.01 0.01,-0.01 0.01,-0.03 0.02,-0.04l0.01 -0.19zm0.01 0.27c-0.03,0.02 -0.06,0.03 -0.09,0.03l-0.13 -0.01c0,0 -0.01,-0.01 0,-0.01l0.03 -0.4c0,-0.01 0,-0.01 0,-0.01l0.13 0.01c0.04,0 0.06,0.02 0.08,0.04 0.02,0.02 0.03,0.05 0.03,0.09l-0.02 0.18c0,0.03 -0.01,0.06 -0.03,0.08z"/>
     <path class="fil1" d="M4.84 8.93l-0.22 0.01c0,0 0,-0.01 0,-0.01l-0.01 -0.4c0,-0.01 0,-0.01 0,-0.01l0.22 -0.01c0,0 0.01,0.01 0.01,0.01l0 0.04c0,0 0,0.01 -0.01,0.01l-0.16 0c0,0 -0.01,0 -0.01,0.01l0.01 0.11c0,0 0,0.01 0,0.01l0.14 -0.01c0,0 0,0.01 0,0.01l0 0.04c0,0 0,0.01 0,0.01l-0.13 0c-0.01,0 -0.01,0 -0.01,0.01l0 0.12c0,0 0,0 0.01,0l0.16 0c0,0 0.01,0 0.01,0l0 0.04c0,0.01 -0.01,0.01 -0.01,0.01z"/>
     <path class="fil1" d="M5.23 8.75c0,-0.01 -0.01,-0.03 -0.02,-0.04 -0.01,-0.01 -0.03,-0.01 -0.04,-0.01l-0.07 0.02c-0.01,0 -0.01,0 -0.01,0l0.02 0.12c0,0 0,0.01 0.01,0.01l0.07 -0.02c0.01,0 0.03,-0.01 0.04,-0.02 0,-0.01 0.01,-0.03 0,-0.05l0 -0.01zm-0.03 -0.17c0,-0.02 -0.01,-0.03 -0.02,-0.04 -0.02,-0.01 -0.03,-0.02 -0.05,-0.01l-0.07 0.01c0,0 0,0 0,0.01l0.02 0.11c0,0 0,0 0.01,0l0.07 -0.01c0.01,0 0.02,-0.01 0.03,-0.02 0.01,-0.02 0.02,-0.03 0.01,-0.05l0 0zm0.08 0.26c-0.02,0.02 -0.05,0.04 -0.08,0.05l-0.13 0.02c0,0 -0.01,0 -0.01,-0.01l-0.07 -0.4c0,0 0,0 0.01,0l0.12 -0.03c0.04,0 0.07,0 0.09,0.02 0.03,0.02 0.04,0.05 0.05,0.08l0 0.01c0,0.02 0,0.03 -0.01,0.05 0,0.01 -0.01,0.02 -0.01,0.02 -0.01,0.01 -0.01,0.01 -0.01,0.02 0,0 0.01,0 0.01,0 0.01,0.01 0.01,0.01 0.02,0.02 0.02,0.02 0.03,0.03 0.03,0.05l0 0.01c0.01,0.04 0,0.07 -0.01,0.09z"/>
     <path class="fil1" d="M5.61 8.72c0,0.02 -0.01,0.03 -0.01,0.04 -0.01,0.01 -0.02,0.02 -0.03,0.03 -0.01,0.01 -0.03,0.02 -0.05,0.02l-0.01 0.01c-0.02,0.01 -0.04,0.01 -0.05,0.01 -0.02,-0.01 -0.03,-0.01 -0.04,-0.02 -0.02,0 -0.03,-0.01 -0.04,-0.02 -0.01,-0.02 -0.01,-0.03 -0.02,-0.05l-0.08 -0.29c0,0 0,0 0,-0.01l0.04 -0.01c0.01,0 0.01,0 0.01,0.01l0.09 0.29c0,0.01 0.01,0.03 0.03,0.03 0.01,0.01 0.03,0.01 0.04,0.01l0.02 -0.01c0.01,0 0.03,-0.01 0.03,-0.02 0.01,-0.02 0.01,-0.03 0.01,-0.05l-0.09 -0.29c0,-0.01 0,-0.01 0.01,-0.01l0.04 -0.01c0,0 0.01,0 0.01,0l0.08 0.29c0.01,0.02 0.01,0.04 0.01,0.05z"/>
     <path class="fil1" d="M5.94 8.65l-0.2 0.09c0,0 0,0 -0.01,-0.01l-0.15 -0.37c0,0 0,-0.01 0,-0.01l0.2 -0.08c0.01,0 0.01,0 0.01,0l0.02 0.04c0,0 0,0 -0.01,0.01l-0.14 0.06c-0.01,0 -0.01,0 -0.01,0.01l0.05 0.1c0,0 0,0.01 0,0l0.13 -0.05c0,0 0,0 0,0.01l0.02 0.03c0,0.01 0,0.01 0,0.01l-0.13 0.05c0,0 0,0.01 0,0.01l0.05 0.11c0,0.01 0,0.01 0.01,0l0.14 -0.06c0.01,0 0.01,0 0.01,0.01l0.02 0.03c0,0.01 0,0.01 -0.01,0.01z"/>
     <path class="fil1" d="M6.26 8.48l-0.03 0.02 -0.01 0 -0.28 -0.18 0.15 0.25c0,0.01 0,0.01 0,0.01l-0.04 0.02c-0.01,0 -0.01,0 -0.01,0l-0.2 -0.35c0,-0.01 0,-0.01 0,-0.01l0.04 -0.02 0 0 0.28 0.18 -0.14 -0.25c-0.01,-0.01 -0.01,-0.01 0,-0.01l0.04 -0.02c0,0 0,0 0.01,0l0.19 0.35c0.01,0.01 0.01,0.01 0,0.01z"/>
     <path class="fil1" d="M6.32 8.06c-0.01,-0.01 -0.02,-0.02 -0.04,-0.02 -0.01,-0.01 -0.03,0 -0.04,0.01l-0.02 0.01c-0.01,0.01 -0.02,0.02 -0.02,0.04 0,0.01 0,0.03 0.01,0.04l0.12 0.17c0.01,0.01 0.03,0.02 0.04,0.02 0.02,0 0.03,0 0.04,-0.01l0.02 -0.01c0.01,-0.01 0.02,-0.02 0.02,-0.04 0.01,-0.01 0,-0.03 -0.01,-0.04l-0.12 -0.17zm0.19 0.18c0,0.01 0,0.03 0,0.04 0,0.01 -0.01,0.03 -0.01,0.04 -0.01,0.01 -0.02,0.02 -0.04,0.03l-0.01 0.01c-0.02,0.02 -0.03,0.02 -0.05,0.03 -0.01,0 -0.03,0 -0.04,0 -0.01,0 -0.03,-0.01 -0.04,-0.02 -0.01,0 -0.02,-0.02 -0.03,-0.03l-0.12 -0.17c-0.01,-0.01 -0.02,-0.02 -0.02,-0.04 -0.01,-0.01 -0.01,-0.03 -0.01,-0.04 0.01,-0.01 0.01,-0.03 0.02,-0.04 0.01,-0.01 0.02,-0.02 0.03,-0.03l0.02 -0.02c0.01,-0.01 0.03,-0.01 0.04,-0.02 0.02,0 0.03,0 0.05,0 0.01,0 0.02,0.01 0.03,0.02 0.02,0 0.03,0.01 0.04,0.03l0.12 0.16c0.01,0.02 0.02,0.03 0.02,0.05z"/>
     <path class="fil1" d="M6.44 7.9c-0.01,0 -0.01,0.01 -0.01,0.02 0,0.01 0,0.01 0,0.02 0.01,0.01 0.01,0.01 0.02,0.02 0,0.01 0.01,0.01 0.02,0.01 0,0.01 0.01,0.01 0.02,0.01 0.01,0 0.02,-0.01 0.03,-0.01 0.01,0 0.02,-0.01 0.04,-0.01 0.02,0 0.03,-0.01 0.05,-0.01 0.01,0 0.03,0 0.04,0 0.01,0 0.03,0.01 0.04,0.01 0.01,0.01 0.02,0.02 0.03,0.03 0.01,0.02 0.02,0.03 0.03,0.04 0,0.02 0,0.03 0,0.04 0,0.02 0,0.03 -0.01,0.05 -0.01,0.01 -0.02,0.02 -0.03,0.03l-0.02 0.02c-0.01,0.01 -0.02,0.02 -0.03,0.02 -0.02,0.01 -0.03,0.01 -0.04,0.01 -0.01,0 -0.02,0 -0.04,0 -0.01,0 -0.01,0 -0.02,-0.01l0 0 0.02 -0.05 0 0c0,0 0.01,0 0.01,0 0.01,0 0.01,0 0.02,0 0,0 0.01,0 0.01,0 0.01,0 0.01,0 0.02,0 0,0 0.01,0 0.01,-0.01l0.02 -0.02c0.02,-0.01 0.02,-0.02 0.02,-0.04 0,-0.01 0,-0.03 -0.01,-0.04 -0.01,-0.01 -0.02,-0.01 -0.02,-0.01 -0.01,-0.01 -0.02,-0.01 -0.03,-0.01 -0.01,0 -0.02,0 -0.03,0.01 -0.01,0 -0.02,0 -0.03,0 -0.02,0.01 -0.04,0.01 -0.05,0.02 -0.02,0 -0.03,0 -0.05,0 -0.01,0 -0.02,-0.01 -0.03,-0.01 -0.01,-0.01 -0.03,-0.02 -0.04,-0.03 -0.01,-0.01 -0.02,-0.03 -0.02,-0.04 -0.01,-0.01 -0.01,-0.03 -0.01,-0.04 0,-0.02 0.01,-0.03 0.01,-0.04 0.01,-0.02 0.02,-0.03 0.03,-0.04l0.01 -0.01c0.01,-0.01 0.03,-0.02 0.04,-0.02 0.01,-0.01 0.02,-0.01 0.04,-0.01 0.01,0 0.02,0 0.03,0 0.01,0 0.01,0.01 0.02,0.01l0 0.01 -0.02 0.04 0 0c0,0 0,0 -0.01,0 -0.01,0 -0.02,0 -0.03,0 -0.01,0 -0.02,0 -0.03,0.01l-0.01 0.01c-0.01,0 -0.01,0.01 -0.01,0.02z"/>
     <path class="fil1" d="M6.79 7.66c-0.01,0 -0.01,0 -0.02,0 0,0 -0.01,-0.01 -0.01,-0.01l0 0 0.01 0.03 0.08 0.1 0 0 0 0c0,0.01 0.01,0.01 0.01,0l0.04 -0.05c0.01,0 0.01,-0.01 0,-0.01l0 0 0 0 -0.11 -0.06zm0.29 0.08l0 0c0.01,0 0.01,0.01 0,0.01l-0.03 0.04 -0.01 0 -0.08 -0.04 -0.01 0 -0.06 0.08 0 0.01 0.05 0.07 0 0.01 -0.03 0.04c-0.01,0 -0.01,0 -0.01,0l0 0 -0.01 0 -0.23 -0.36 0 0 0.03 -0.03c0,0 0,0 0.01,0l0.38 0.17 0 0z"/>
     <path class="fil1" d="M7.15 7.65l-0.02 0.04c-0.01,0 -0.01,0 -0.01,0l-0.33 -0.24c0,0 0,-0.01 0,-0.01l0.03 -0.04c0,0 0,0 0.01,0l0.32 0.24c0.01,0 0.01,0.01 0,0.01z"/>
     <path class="fil1" d="M7.05 7.25c-0.01,-0.01 -0.03,-0.01 -0.04,-0.01 -0.02,0 -0.03,0.01 -0.04,0.03l-0.04 0.06c0,0 0,0 0.01,0.01l0.09 0.05c0.01,0.01 0.01,0.01 0.01,0l0.04 -0.06c0.01,-0.01 0.01,-0.03 0.01,-0.04 -0.01,-0.02 -0.02,-0.03 -0.03,-0.04l-0.01 0zm0.29 0.1c0,0.01 0,0.01 0,0.01l-0.02 0.04 -0.01 0.01 -0.18 -0.05 -0.01 0.01 -0.03 0.05c-0.01,0 -0.01,0.01 0,0.01l0.15 0.09c0,0 0,0.01 0,0.01l-0.03 0.04c0,0 0,0 -0.01,0l-0.34 -0.21c0,-0.01 0,-0.01 0,-0.01l0.07 -0.11c0.02,-0.03 0.04,-0.05 0.07,-0.06 0.03,0 0.06,0 0.09,0.02l0 0.01c0.01,0 0.02,0.01 0.03,0.02 0.01,0.02 0.02,0.03 0.02,0.05 0,0.01 0,0.01 0,0.02 0,0 0,0.01 0,0.01l0.01 0 0.19 0.04 0 0z"/>
     <path class="fil1" d="M7.49 7.07l-0.1 0.2c0,0 0,0 -0.01,0l-0.36 -0.17c-0.01,-0.01 -0.01,-0.01 -0.01,-0.01l0.1 -0.2c0,0 0,-0.01 0.01,0l0.03 0.01c0.01,0.01 0.01,0.01 0.01,0.01l-0.07 0.15c0,0 0,0 0,0.01l0.1 0.04c0.01,0.01 0.01,0.01 0.01,0l0.06 -0.12c0,0 0,0 0.01,0l0.03 0.02c0.01,0 0.01,0 0.01,0.01l-0.06 0.11c0,0.01 0,0.01 0,0.01l0.11 0.05c0,0.01 0.01,0 0.01,0l0.07 -0.14c0,-0.01 0,-0.01 0.01,-0.01l0.03 0.02c0.01,0 0.01,0.01 0.01,0.01z"/>
     <path class="fil1" d="M7.2 6.78c0,0.01 0.01,0.02 0.01,0.02 0,0.01 0.01,0.02 0.01,0.02 0.01,0.01 0.02,0.01 0.02,0.01 0.01,0.01 0.02,0.01 0.03,0.01 0,0 0.01,-0.01 0.02,-0.01 0.01,-0.01 0.01,-0.01 0.02,-0.02 0.01,-0.01 0.02,-0.02 0.03,-0.03 0.01,-0.01 0.03,-0.02 0.04,-0.03 0.01,-0.01 0.02,-0.02 0.04,-0.02 0.01,-0.01 0.02,-0.01 0.04,-0.01 0.01,0 0.02,0.01 0.04,0.01 0.01,0.01 0.03,0.01 0.04,0.02 0.01,0.01 0.02,0.03 0.02,0.04 0.01,0.01 0.01,0.02 0.01,0.04 0,0.01 0,0.03 0,0.05l-0.01 0.02c-0.01,0.02 -0.01,0.03 -0.02,0.04 -0.01,0.01 -0.02,0.02 -0.02,0.02 -0.02,0.01 -0.03,0.02 -0.04,0.02 -0.01,0 -0.02,0 -0.02,0l-0.01 -0.01 0 -0.04 0 0c0,-0.01 0,-0.01 0,-0.01 0.01,0 0.02,0 0.02,0 0.01,0 0.01,-0.01 0.02,-0.01 0,0 0,0 0.01,-0.01 0,0 0,-0.01 0.01,-0.02l0.01 -0.02c0,-0.02 0,-0.03 -0.01,-0.04 0,-0.02 -0.01,-0.03 -0.03,-0.03 -0.01,-0.01 -0.02,-0.01 -0.03,-0.01 0,0 -0.01,0.01 -0.02,0.01 -0.01,0 -0.02,0.01 -0.02,0.02 -0.01,0 -0.02,0.01 -0.03,0.02 -0.01,0.02 -0.03,0.03 -0.04,0.04 -0.01,0.01 -0.02,0.01 -0.04,0.02 -0.01,0 -0.02,0.01 -0.03,0.01 -0.02,0 -0.03,-0.01 -0.05,-0.01 -0.01,-0.01 -0.03,-0.01 -0.04,-0.02 -0.01,-0.01 -0.02,-0.03 -0.02,-0.04 -0.01,-0.01 -0.01,-0.03 -0.01,-0.04 0,-0.02 0,-0.03 0.01,-0.05l0 -0.01c0,-0.01 0.01,-0.02 0.02,-0.04 0.01,-0.01 0.02,-0.01 0.03,-0.02 0.01,-0.01 0.02,-0.01 0.03,-0.01 0.01,-0.01 0.01,-0.01 0.02,-0.01l0 0.01 0.01 0.05 0 0c0,0 0,0 -0.01,0 -0.01,0.01 -0.02,0.01 -0.03,0.01 -0.01,0.01 -0.02,0.02 -0.02,0.03l0 0.01c-0.01,0.01 -0.01,0.01 -0.01,0.02z"/>
     <path class="fil2" d="M4.53 2.16l-0.02 -0.02 0.01 -0.02 -0.02 -0.04 0.04 -0.02 0.04 0.04 -0.03 0.04 0 0 -0.01 0.01 -0.01 0.01zm-0.31 0.13l-0.04 -0.07 0.16 -0.07 0.04 0.07 -0.16 0.07zm0.48 0.01l-0.03 -0.03 0.05 -0.06 0.03 0.02 -0.05 0.07zm-0.56 0.03l-0.04 -0.07 0.04 -0.02 0.04 0.07 -0.04 0.02zm-0.21 0.09l-0.03 -0.08 0.04 -0.01 0.04 0.07 -0.05 0.02zm0.94 0.01l-0.13 -0.11 0.05 -0.06 0.13 0.11 -0.05 0.06zm-1.26 0.13l-0.03 -0.07 0.16 -0.07 0.03 0.07 -0.16 0.07zm1.44 0.01l-0.04 -0.03 0.05 -0.06 0.03 0.03 -0.04 0.06zm-1.52 0.02l-0.03 -0.07 0.04 -0.02 0.03 0.08 -0.04 0.01zm-0.2 0.09l-0.01 -0.03 -0.04 -0.02 0.01 -0.01 0.05 -0.03 0.03 0.07 -0.04 0.02zm1.89 0.03l-0.04 -0.03 0.05 -0.06 0.04 0.03 -0.05 0.06zm0.17 0.13l-0.14 -0.11 0.05 -0.06 0.14 0.11 -0.05 0.06zm-2.21 0.13l-0.07 -0.03 0.09 -0.16 0.07 0.04 -0.09 0.15zm2.38 0.01l-0.04 -0.03 0.05 -0.06 0.04 0.03 -0.05 0.06zm-2.42 0.07l-0.07 -0.04 0.02 -0.04 0.07 0.04 -0.02 0.04zm2.59 0.07l-0.03 -0.03 0.04 -0.06 0.04 0.03 -0.05 0.06zm-2.69 0.12l-0.07 -0.04 0.02 -0.03 0.07 0.03 -0.02 0.04zm2.86 0.01l-0.14 -0.11 0.05 -0.06 0.14 0.11 -0.05 0.06zm0.17 0.14l-0.03 -0.03 0.05 -0.06 0.03 0.03 -0.05 0.06zm0.17 0.14l-0.03 -0.03 0.05 -0.06 0.03 0.03 -0.05 0.06zm-3.37 0.02l-0.07 -0.04 0.08 -0.15 0.07 0.03 -0.08 0.16zm-0.05 0.08l-0.06 -0.04 0.02 -0.04 0.07 0.04 -0.03 0.04zm3.59 0.04l-0.13 -0.11 0.05 -0.07 0.13 0.11 -0.05 0.07zm0.18 0.13l-0.04 -0.03 0.05 -0.06 0.03 0.03 -0.04 0.06zm-3.87 0.02l-0.07 -0.04 0.02 -0.04 0.07 0.04 -0.02 0.04zm4.04 0.12l-0.04 -0.03 0.05 -0.06 0.04 0.03 -0.05 0.06zm0.17 0.14l-0.14 -0.11 0.05 -0.06 0.14 0.11 -0.05 0.06zm-4.38 0.04l-0.07 -0.03 0.09 -0.16 0.06 0.04 -0.08 0.15zm4.53 0.08l-0.01 -0.01 0 0 0 -0.02 0.01 0 0.03 -0.05 0.03 0.03 0 0.04 -0.06 0 0 0.01zm-4.57 0l-0.07 -0.04 0.02 -0.03 0.07 0.03 -0.02 0.04zm-0.11 0.19l-0.07 -0.03 0.03 -0.04 0.06 0.03 -0.02 0.04zm4.74 0.02l-0.08 0 0 -0.04 0.08 0 0 0.04zm0 0.22l-0.08 0 0 -0.18 0.08 0 0 0.18zm-4.91 0.07l-0.03 -0.02 -0.04 0 0 -0.01 0.01 -0.01 0.08 -0.15 0.07 0.04 -0.09 0.15zm0 0.07l-0.08 0 0.01 -0.05 0.08 0.01 -0.01 0.04zm4.91 0.08l-0.08 0 0 -0.04 0.08 0 0 0.04zm-4.92 0.14l-0.08 -0.01 0 -0.04 0.08 0.01 0 0.04zm4.92 0.08l-0.08 0 0 -0.05 0.08 0 0 0.05zm0 0.22l-0.08 0 0 -0.18 0.08 0 0 0.18zm-4.95 0.05l-0.08 -0.01 0.01 -0.17 0.08 0.01 -0.01 0.17zm-0.01 0.09l-0.08 -0.01 0.01 -0.04 0.08 0 -0.01 0.05zm4.96 0.08l-0.08 0 0 -0.05 0.08 0 0 0.05zm-4.98 0.14l-0.07 -0.01 0 -0.04 0.08 0 -0.01 0.05zm4.98 0.07l-0.08 0 0 -0.04 0.08 0 0 0.04zm0 0.22l-0.08 0 0 -0.17 0.08 0 0 0.17zm-5 0.05l-0.08 0 0.01 -0.18 0.08 0.01 -0.01 0.17zm-0.01 0.09l-0.08 0 0.01 -0.05 0.07 0.01 0 0.04zm5.01 0.08l-0.08 0 0 -0.04 0.08 0 0 0.04zm-5.05 0.03l-0.03 -0.03 0.06 -0.06 0.03 0.04 -0.06 0.05zm0.14 0.16l-0.02 -0.03 0.05 -0.05 0.03 0.03 -0.06 0.05zm4.87 0.06l-0.01 -0.04 -0.03 0 0 -0.03 0.03 0 0 0 0 0 0 0 0.05 0 0 0.07 -0.04 0zm-0.22 0.04l-0.01 -0.07 0.17 -0.03 0.02 0.07 -0.18 0.03zm-0.21 0.04l-0.02 -0.07 0.05 -0.01 0.01 0.08 -0.04 0zm-0.22 0.04l-0.01 -0.07 0.04 -0.01 0.02 0.08 -0.05 0zm-0.21 0.04l-0.02 -0.07 0.18 -0.03 0.01 0.07 -0.17 0.03zm-3.77 0.04l-0.12 -0.13 0.06 -0.05 0.12 0.13 -0.06 0.05zm3.55 0l-0.01 -0.07 0.04 -0.01 0.01 0.08 -0.04 0zm-0.21 0.04l-0.02 -0.07 0.04 -0.01 0.02 0.08 -0.04 0zm-3.28 0.03l-0.03 -0.03 0.06 -0.06 0.03 0.04 -0.06 0.05zm3.06 0.01l-0.01 -0.07 0.17 -0.03 0.01 0.07 -0.17 0.03zm-0.22 0.04l-0.01 -0.07 0.04 -0.01 0.02 0.08 -0.05 0zm-0.18 0.05l-0.06 -0.05 0.03 -0.03 0.03 -0.01 0.01 0.06 0.01 0.01 -0.02 0.02zm-2.52 0.06l-0.03 -0.03 0.06 -0.05 0.03 0.03 -0.06 0.05zm2.37 0.1l-0.05 -0.05 0.11 -0.13 0.06 0.05 -0.12 0.13zm-2.13 0.16l-0.12 -0.13 0.06 -0.05 0.12 0.13 -0.06 0.05zm1.99 0.01l-0.06 -0.06 0.03 -0.03 0.06 0.05 -0.03 0.04zm-1.93 0.06l-0.03 -0.04 0.06 -0.05 0.03 0.03 -0.06 0.06zm1.78 0.1l-0.06 -0.05 0.03 -0.04 0.06 0.06 -0.03 0.03zm-1.64 0.06l-0.03 -0.03 0.06 -0.05 0.03 0.03 -0.06 0.05zm1.5 0.1l-0.06 -0.05 0.11 -0.13 0.06 0.05 -0.11 0.13zm-1.26 0.16l-0.12 -0.13 0.06 -0.05 0.12 0.13 -0.06 0.05zm1.11 0.01l-0.06 -0.06 0.03 -0.03 0.06 0.05 -0.03 0.04zm-1.05 0.06l-0.03 -0.04 0.06 -0.05 0.02 0.03 -0.05 0.06zm0.9 0.1l-0.06 -0.05 0.03 -0.04 0.06 0.06 -0.03 0.03zm-0.76 0.06l-0.03 -0.03 0.06 -0.06 0.03 0.04 -0.06 0.05zm0.62 0.1l-0.06 -0.05 0.12 -0.13 0.05 0.05 -0.11 0.13zm-0.38 0.16l-0.12 -0.13 0.06 -0.05 0.12 0.13 -0.06 0.05zm0.23 0.01l-0.06 -0.06 0.03 -0.03 0.06 0.05 -0.03 0.04zm-0.17 0.05l-0.03 -0.03 0.05 -0.05 0.03 0.03 -0.05 0.05z"/>
     <path class="fil2" d="M4.44 2.29c0,0.02 0.02,0.05 0.05,0.05 0.03,0 0.05,-0.03 0.05,-0.05 0,-0.03 -0.02,-0.05 -0.05,-0.05 -0.03,0 -0.05,0.02 -0.05,0.05z"/>
     <polygon class="fil2" points="4.42,2.34 4.56,2.37 4.46,2.59 "/>
     <polygon class="fil2" points="4.18,2.34 4.32,2.37 4.23,2.59 "/>
     <path class="fil2" d="M4.32 2.64c0,0.03 0.02,0.05 0.05,0.05 0.03,0 0.05,-0.02 0.05,-0.05 0,-0.02 -0.02,-0.05 -0.05,-0.05 -0.03,0 -0.05,0.03 -0.05,0.05z"/>
     <polygon class="fil2" points="4.3,2.7 4.44,2.72 4.35,2.95 "/>
     <path class="fil2" d="M4.08 2.64c0,0.03 0.03,0.05 0.05,0.05 0.03,0 0.05,-0.02 0.05,-0.05 0,-0.02 -0.02,-0.05 -0.05,-0.05 -0.02,0 -0.05,0.03 -0.05,0.05z"/>
     <polygon class="fil2" points="4.06,2.7 4.2,2.72 4.11,2.95 "/>
     <path class="fil2" d="M3.84 2.64c0,0.03 0.02,0.05 0.05,0.05 0.03,0 0.05,-0.02 0.05,-0.05 0,-0.02 -0.02,-0.05 -0.05,-0.05 -0.03,0 -0.05,0.03 -0.05,0.05z"/>
     <polygon class="fil2" points="3.82,2.7 3.96,2.72 3.87,2.95 "/>
     <polygon class="fil2" points="5.01,2.7 5.15,2.72 5.06,2.95 "/>
     <path class="fil2" d="M4.81 2.64c0,0.03 0.02,0.05 0.05,0.05 0.03,0 0.05,-0.02 0.05,-0.05 0,-0.02 -0.02,-0.05 -0.05,-0.05 -0.03,0 -0.05,0.03 -0.05,0.05z"/>
     <polygon class="fil2" points="4.79,2.7 4.93,2.72 4.84,2.95 "/>
     <path class="fil2" d="M4.57 2.64c0,0.03 0.02,0.05 0.05,0.05 0.03,0 0.05,-0.02 0.05,-0.05 0,-0.02 -0.02,-0.05 -0.05,-0.05 -0.03,0 -0.05,0.03 -0.05,0.05z"/>
     <polygon class="fil2" points="4.55,2.7 4.69,2.72 4.59,2.95 "/>
     <path class="fil2" d="M3.6 2.64c0,0.03 0.03,0.05 0.05,0.05 0.03,0 0.05,-0.02 0.05,-0.05 0,-0.02 -0.02,-0.05 -0.05,-0.05 -0.02,0 -0.05,0.03 -0.05,0.05z"/>
     <polygon class="fil2" points="3.58,2.7 3.72,2.72 3.63,2.95 "/>
     <path class="fil2" d="M3.95 3.02c0,0.03 0.02,0.05 0.05,0.05 0.03,0 0.05,-0.02 0.05,-0.05 0,-0.02 -0.02,-0.05 -0.05,-0.05 -0.03,0 -0.05,0.03 -0.05,0.05z"/>
     <polygon class="fil2" points="3.93,3.08 4.07,3.1 3.98,3.33 "/>
     <path class="fil2" d="M3.71 3.02c0,0.03 0.03,0.05 0.05,0.05 0.03,0 0.06,-0.02 0.06,-0.05 0,-0.02 -0.03,-0.05 -0.06,-0.05 -0.02,0 -0.05,0.03 -0.05,0.05z"/>
     <polygon class="fil2" points="3.7,3.08 3.83,3.1 3.74,3.33 "/>
     <path class="fil2" d="M3.47 3.02c0,0.03 0.02,0.05 0.05,0.05 0.03,0 0.05,-0.02 0.05,-0.05 0,-0.02 -0.02,-0.05 -0.05,-0.05 -0.03,0 -0.05,0.03 -0.05,0.05z"/>
     <polygon class="fil2" points="3.45,3.08 3.59,3.1 3.5,3.33 "/>
     <path class="fil2" d="M4.44 3.02c0,0.03 0.02,0.05 0.05,0.05 0.03,0 0.05,-0.02 0.05,-0.05 0,-0.02 -0.02,-0.05 -0.05,-0.05 -0.03,0 -0.05,0.03 -0.05,0.05z"/>
     <polygon class="fil2" points="4.42,3.08 4.56,3.1 4.47,3.33 "/>
     <path class="fil2" d="M4.2 3.02c0,0.03 0.02,0.05 0.05,0.05 0.03,0 0.05,-0.02 0.05,-0.05 0,-0.02 -0.02,-0.05 -0.05,-0.05 -0.03,0 -0.05,0.03 -0.05,0.05z"/>
     <polygon class="fil2" points="4.18,3.08 4.32,3.1 4.22,3.33 "/>
     <path class="fil2" d="M3.23 3.02c0,0.03 0.03,0.05 0.05,0.05 0.03,0 0.06,-0.02 0.06,-0.05 0,-0.02 -0.03,-0.05 -0.06,-0.05 -0.02,0 -0.05,0.03 -0.05,0.05z"/>
     <polygon class="fil2" points="3.22,3.08 3.35,3.1 3.26,3.33 "/>
     <path class="fil2" d="M5.41 3.02c0,0.03 0.02,0.05 0.05,0.05 0.03,0 0.05,-0.02 0.05,-0.05 0,-0.02 -0.02,-0.05 -0.05,-0.05 -0.03,0 -0.05,0.03 -0.05,0.05z"/>
     <polygon class="fil2" points="5.39,3.08 5.52,3.1 5.43,3.33 "/>
     <path class="fil2" d="M5.17 3.02c0,0.03 0.02,0.05 0.05,0.05 0.03,0 0.05,-0.02 0.05,-0.05 0,-0.02 -0.02,-0.05 -0.05,-0.05 -0.03,0 -0.05,0.03 -0.05,0.05z"/>
     <polygon class="fil2" points="5.15,3.08 5.29,3.1 5.19,3.33 "/>
     <path class="fil2" d="M4.93 3.02c0,0.03 0.02,0.05 0.05,0.05 0.03,0 0.05,-0.02 0.05,-0.05 0,-0.02 -0.02,-0.05 -0.05,-0.05 -0.03,0 -0.05,0.03 -0.05,0.05z"/>
     <polygon class="fil2" points="4.91,3.08 5.04,3.1 4.95,3.33 "/>
     <path class="fil2" d="M4.69 3.02c0,0.03 0.02,0.05 0.05,0.05 0.03,0 0.05,-0.02 0.05,-0.05 0,-0.02 -0.02,-0.05 -0.05,-0.05 -0.03,0 -0.05,0.03 -0.05,0.05z"/>
     <polygon class="fil2" points="4.67,3.08 4.81,3.1 4.71,3.33 "/>
     <path class="fil2" d="M3.78 3.42c0,0.02 0.02,0.05 0.05,0.05 0.02,0 0.05,-0.03 0.05,-0.05 0,-0.03 -0.03,-0.05 -0.05,-0.05 -0.03,0 -0.05,0.02 -0.05,0.05z"/>
     <polygon class="fil2" points="3.76,3.47 3.89,3.49 3.8,3.72 "/>
     <path class="fil2" d="M3.54 3.42c0,0.02 0.02,0.05 0.05,0.05 0.03,0 0.05,-0.03 0.05,-0.05 0,-0.03 -0.02,-0.05 -0.05,-0.05 -0.03,0 -0.05,0.02 -0.05,0.05z"/>
     <polygon class="fil2" points="3.52,3.47 3.65,3.49 3.56,3.72 "/>
     <path class="fil2" d="M3.3 3.42c0,0.02 0.02,0.05 0.05,0.05 0.02,0 0.05,-0.03 0.05,-0.05 0,-0.03 -0.03,-0.05 -0.05,-0.05 -0.03,0 -0.05,0.02 -0.05,0.05z"/>
     <polygon class="fil2" points="3.28,3.47 3.41,3.49 3.32,3.72 "/>
     <path class="fil2" d="M4.27 3.42c0,0.02 0.02,0.05 0.05,0.05 0.02,0 0.05,-0.03 0.05,-0.05 0,-0.03 -0.03,-0.05 -0.05,-0.05 -0.03,0 -0.05,0.02 -0.05,0.05z"/>
     <polygon class="fil2" points="4.25,3.47 4.38,3.49 4.29,3.72 "/>
     <path class="fil2" d="M4.02 3.42c0,0.02 0.03,0.05 0.05,0.05 0.03,0 0.05,-0.03 0.05,-0.05 0,-0.03 -0.02,-0.05 -0.05,-0.05 -0.02,0 -0.05,0.02 -0.05,0.05z"/>
     <polygon class="fil2" points="4,3.47 4.14,3.49 4.05,3.72 "/>
     <path class="fil2" d="M3.06 3.42c0,0.02 0.02,0.05 0.05,0.05 0.03,0 0.05,-0.03 0.05,-0.05 0,-0.03 -0.02,-0.05 -0.05,-0.05 -0.03,0 -0.05,0.02 -0.05,0.05z"/>
     <polygon class="fil2" points="3.04,3.47 3.17,3.49 3.08,3.72 "/>
     <path class="fil2" d="M5.23 3.42c0,0.02 0.02,0.05 0.05,0.05 0.03,0 0.05,-0.03 0.05,-0.05 0,-0.03 -0.02,-0.05 -0.05,-0.05 -0.03,0 -0.05,0.02 -0.05,0.05z"/>
     <polygon class="fil2" points="5.21,3.47 5.35,3.49 5.25,3.72 "/>
     <path class="fil2" d="M4.99 3.42c0,0.02 0.03,0.05 0.05,0.05 0.03,0 0.05,-0.03 0.05,-0.05 0,-0.03 -0.02,-0.05 -0.05,-0.05 -0.02,0 -0.05,0.02 -0.05,0.05z"/>
     <polygon class="fil2" points="4.97,3.47 5.11,3.49 5.02,3.72 "/>
     <path class="fil2" d="M4.75 3.42c0,0.02 0.02,0.05 0.05,0.05 0.03,0 0.05,-0.03 0.05,-0.05 0,-0.03 -0.02,-0.05 -0.05,-0.05 -0.03,0 -0.05,0.02 -0.05,0.05z"/>
     <polygon class="fil2" points="4.73,3.47 4.87,3.49 4.77,3.72 "/>
     <polygon class="fil2" points="5.95,3.47 6.09,3.49 6,3.72 "/>
     <path class="fil2" d="M5.74 3.42c0,0.02 0.02,0.05 0.05,0.05 0.02,0 0.05,-0.03 0.05,-0.05 0,-0.03 -0.03,-0.05 -0.05,-0.05 -0.03,0 -0.05,0.02 -0.05,0.05z"/>
     <polygon class="fil2" points="5.72,3.47 5.85,3.49 5.76,3.72 "/>
     <path class="fil2" d="M5.49 3.42c0,0.02 0.03,0.05 0.05,0.05 0.03,0 0.05,-0.03 0.05,-0.05 0,-0.03 -0.02,-0.05 -0.05,-0.05 -0.02,0 -0.05,0.02 -0.05,0.05z"/>
     <polygon class="fil2" points="5.47,3.47 5.61,3.49 5.52,3.72 "/>
     <path class="fil2" d="M4.51 3.42c0,0.02 0.03,0.05 0.05,0.05 0.03,0 0.05,-0.03 0.05,-0.05 0,-0.03 -0.02,-0.05 -0.05,-0.05 -0.02,0 -0.05,0.02 -0.05,0.05z"/>
     <polygon class="fil2" points="4.49,3.47 4.63,3.49 4.54,3.72 "/>
     <path class="fil2" d="M3.57 3.81c0,0.03 0.03,0.05 0.05,0.05 0.03,0 0.05,-0.02 0.05,-0.05 0,-0.02 -0.02,-0.05 -0.05,-0.05 -0.02,0 -0.05,0.03 -0.05,0.05z"/>
     <polygon class="fil2" points="3.56,3.87 3.69,3.89 3.6,4.12 "/>
     <path class="fil2" d="M3.34 3.81c0,0.03 0.02,0.05 0.05,0.05 0.02,0 0.05,-0.02 0.05,-0.05 0,-0.02 -0.03,-0.05 -0.05,-0.05 -0.03,0 -0.05,0.03 -0.05,0.05z"/>
     <polygon class="fil2" points="3.32,3.87 3.45,3.89 3.36,4.12 "/>
     <path class="fil2" d="M3.09 3.81c0,0.03 0.03,0.05 0.05,0.05 0.03,0 0.05,-0.02 0.05,-0.05 0,-0.02 -0.02,-0.05 -0.05,-0.05 -0.02,0 -0.05,0.03 -0.05,0.05z"/>
     <polygon class="fil2" points="3.08,3.87 3.21,3.89 3.12,4.12 "/>
     <path class="fil2" d="M4.06 3.81c0,0.03 0.03,0.05 0.05,0.05 0.03,0 0.05,-0.02 0.05,-0.05 0,-0.02 -0.02,-0.05 -0.05,-0.05 -0.02,0 -0.05,0.03 -0.05,0.05z"/>
     <polygon class="fil2" points="4.05,3.87 4.18,3.89 4.09,4.12 "/>
     <path class="fil2" d="M3.82 3.81c0,0.03 0.02,0.05 0.05,0.05 0.03,0 0.05,-0.02 0.05,-0.05 0,-0.02 -0.02,-0.05 -0.05,-0.05 -0.03,0 -0.05,0.03 -0.05,0.05z"/>
     <polygon class="fil2" points="3.8,3.87 3.94,3.89 3.85,4.12 "/>
     <path class="fil2" d="M2.86 3.81c0,0.03 0.02,0.05 0.05,0.05 0.02,0 0.05,-0.02 0.05,-0.05 0,-0.02 -0.03,-0.05 -0.05,-0.05 -0.03,0 -0.05,0.03 -0.05,0.05z"/>
     <polygon class="fil2" points="2.84,3.87 2.97,3.89 2.88,4.12 "/>
     <path class="fil2" d="M5.03 3.81c0,0.03 0.02,0.05 0.05,0.05 0.03,0 0.05,-0.02 0.05,-0.05 0,-0.02 -0.02,-0.05 -0.05,-0.05 -0.03,0 -0.05,0.03 -0.05,0.05z"/>
     <polygon class="fil2" points="5.01,3.87 5.15,3.89 5.05,4.12 "/>
     <path class="fil2" d="M4.79 3.81c0,0.03 0.02,0.05 0.05,0.05 0.03,0 0.05,-0.02 0.05,-0.05 0,-0.02 -0.02,-0.05 -0.05,-0.05 -0.03,0 -0.05,0.03 -0.05,0.05z"/>
     <polygon class="fil2" points="4.77,3.87 4.91,3.89 4.82,4.12 "/>
     <path class="fil2" d="M4.55 3.81c0,0.03 0.02,0.05 0.05,0.05 0.03,0 0.05,-0.02 0.05,-0.05 0,-0.02 -0.02,-0.05 -0.05,-0.05 -0.03,0 -0.05,0.03 -0.05,0.05z"/>
     <polygon class="fil2" points="4.53,3.87 4.67,3.89 4.57,4.12 "/>
     <path class="fil2" d="M5.55 3.81c0,0.03 0.02,0.05 0.05,0.05 0.03,0 0.05,-0.02 0.05,-0.05 0,-0.02 -0.02,-0.05 -0.05,-0.05 -0.03,0 -0.05,0.03 -0.05,0.05z"/>
     <polygon class="fil2" points="5.53,3.87 5.67,3.89 5.57,4.12 "/>
     <path class="fil2" d="M5.29 3.81c0,0.03 0.03,0.05 0.05,0.05 0.03,0 0.05,-0.02 0.05,-0.05 0,-0.02 -0.02,-0.05 -0.05,-0.05 -0.02,0 -0.05,0.03 -0.05,0.05z"/>
     <polygon class="fil2" points="5.27,3.87 5.41,3.89 5.32,4.12 "/>
     <path class="fil2" d="M6.03 3.81c0,0.03 0.02,0.05 0.05,0.05 0.03,0 0.05,-0.02 0.05,-0.05 0,-0.02 -0.02,-0.05 -0.05,-0.05 -0.03,0 -0.05,0.03 -0.05,0.05z"/>
     <polygon class="fil2" points="6.01,3.87 6.15,3.89 6.05,4.12 "/>
     <path class="fil2" d="M5.79 3.81c0,0.03 0.02,0.05 0.05,0.05 0.03,0 0.05,-0.02 0.05,-0.05 0,-0.02 -0.02,-0.05 -0.05,-0.05 -0.03,0 -0.05,0.03 -0.05,0.05z"/>
     <polygon class="fil2" points="5.77,3.87 5.91,3.89 5.82,4.12 "/>
     <polygon class="fil2" points="6.52,3.87 6.65,3.89 6.56,4.12 "/>
     <path class="fil2" d="M6.29 3.81c0,0.03 0.02,0.05 0.05,0.05 0.03,0 0.05,-0.02 0.05,-0.05 0,-0.02 -0.02,-0.05 -0.05,-0.05 -0.03,0 -0.05,0.03 -0.05,0.05z"/>
     <polygon class="fil2" points="6.27,3.87 6.41,3.89 6.32,4.12 "/>
     <path class="fil2" d="M4.31 3.81c0,0.03 0.02,0.05 0.05,0.05 0.03,0 0.05,-0.02 0.05,-0.05 0,-0.02 -0.02,-0.05 -0.05,-0.05 -0.03,0 -0.05,0.03 -0.05,0.05z"/>
     <polygon class="fil2" points="4.29,3.87 4.43,3.89 4.34,4.12 "/>
     <path class="fil2" d="M3.21 4.21c0,0.03 0.03,0.05 0.05,0.05 0.03,0 0.05,-0.02 0.05,-0.05 0,-0.03 -0.02,-0.05 -0.05,-0.05 -0.02,0 -0.05,0.02 -0.05,0.05z"/>
     <polygon class="fil2" points="3.19,4.27 3.33,4.29 3.24,4.52 "/>
     <path class="fil2" d="M2.98 4.21c0,0.03 0.02,0.05 0.05,0.05 0.02,0 0.05,-0.02 0.05,-0.05 0,-0.03 -0.03,-0.05 -0.05,-0.05 -0.03,0 -0.05,0.02 -0.05,0.05z"/>
     <polygon class="fil2" points="2.96,4.27 3.09,4.29 3,4.52 "/>
     <path class="fil2" d="M2.73 4.21c0,0.03 0.03,0.05 0.05,0.05 0.03,0 0.05,-0.02 0.05,-0.05 0,-0.03 -0.02,-0.05 -0.05,-0.05 -0.02,0 -0.05,0.02 -0.05,0.05z"/>
     <polygon class="fil2" points="2.71,4.27 2.85,4.29 2.76,4.52 "/>
     <path class="fil2" d="M3.7 4.21c0,0.03 0.03,0.05 0.05,0.05 0.03,0 0.05,-0.02 0.05,-0.05 0,-0.03 -0.02,-0.05 -0.05,-0.05 -0.02,0 -0.05,0.02 -0.05,0.05z"/>
     <polygon class="fil2" points="3.68,4.27 3.82,4.29 3.73,4.52 "/>
     <path class="fil2" d="M3.46 4.21c0,0.03 0.02,0.05 0.05,0.05 0.03,0 0.05,-0.02 0.05,-0.05 0,-0.03 -0.02,-0.05 -0.05,-0.05 -0.03,0 -0.05,0.02 -0.05,0.05z"/>
     <polygon class="fil2" points="3.44,4.27 3.58,4.29 3.48,4.52 "/>
     <polygon class="fil2" points="2.49,4.27 2.63,4.29 2.53,4.52 "/>
     <path class="fil2" d="M4.67 4.21c0,0.03 0.02,0.05 0.05,0.05 0.03,0 0.05,-0.02 0.05,-0.05 0,-0.03 -0.02,-0.05 -0.05,-0.05 -0.03,0 -0.05,0.02 -0.05,0.05z"/>
     <polygon class="fil2" points="4.65,4.27 4.78,4.29 4.69,4.52 "/>
     <path class="fil2" d="M4.43 4.21c0,0.03 0.02,0.05 0.05,0.05 0.03,0 0.05,-0.02 0.05,-0.05 0,-0.03 -0.02,-0.05 -0.05,-0.05 -0.03,0 -0.05,0.02 -0.05,0.05z"/>
     <polygon class="fil2" points="4.41,4.27 4.55,4.29 4.45,4.52 "/>
     <path class="fil2" d="M4.19 4.21c0,0.03 0.02,0.05 0.05,0.05 0.03,0 0.05,-0.02 0.05,-0.05 0,-0.03 -0.02,-0.05 -0.05,-0.05 -0.03,0 -0.05,0.02 -0.05,0.05z"/>
     <polygon class="fil2" points="4.17,4.27 4.3,4.29 4.21,4.52 "/>
     <path class="fil2" d="M5.19 4.21c0,0.03 0.02,0.05 0.05,0.05 0.03,0 0.05,-0.02 0.05,-0.05 0,-0.03 -0.02,-0.05 -0.05,-0.05 -0.03,0 -0.05,0.02 -0.05,0.05z"/>
     <polygon class="fil2" points="5.17,4.27 5.3,4.29 5.21,4.52 "/>
     <path class="fil2" d="M4.93 4.21c0,0.03 0.02,0.05 0.05,0.05 0.03,0 0.05,-0.02 0.05,-0.05 0,-0.03 -0.02,-0.05 -0.05,-0.05 -0.03,0 -0.05,0.02 -0.05,0.05z"/>
     <polygon class="fil2" points="4.91,4.27 5.05,4.29 4.96,4.52 "/>
     <path class="fil2" d="M5.67 4.21c0,0.03 0.02,0.05 0.05,0.05 0.03,0 0.05,-0.02 0.05,-0.05 0,-0.03 -0.02,-0.05 -0.05,-0.05 -0.03,0 -0.05,0.02 -0.05,0.05z"/>
     <polygon class="fil2" points="5.65,4.27 5.78,4.29 5.69,4.52 "/>
     <path class="fil2" d="M5.43 4.21c0,0.03 0.02,0.05 0.05,0.05 0.03,0 0.05,-0.02 0.05,-0.05 0,-0.03 -0.02,-0.05 -0.05,-0.05 -0.03,0 -0.05,0.02 -0.05,0.05z"/>
     <polygon class="fil2" points="5.41,4.27 5.55,4.29 5.45,4.52 "/>
     <path class="fil2" d="M5.93 4.21c0,0.03 0.02,0.05 0.05,0.05 0.03,0 0.05,-0.02 0.05,-0.05 0,-0.03 -0.02,-0.05 -0.05,-0.05 -0.03,0 -0.05,0.02 -0.05,0.05z"/>
     <polygon class="fil2" points="5.91,4.27 6.05,4.29 5.95,4.52 "/>
     <path class="fil2" d="M6.19 4.21c0,0.03 0.02,0.05 0.05,0.05 0.03,0 0.05,-0.02 0.05,-0.05 0,-0.03 -0.02,-0.05 -0.05,-0.05 -0.03,0 -0.05,0.02 -0.05,0.05z"/>
     <polygon class="fil2" points="6.17,4.27 6.31,4.29 6.21,4.52 "/>
     <path class="fil2" d="M6.67 4.21c0,0.03 0.02,0.05 0.05,0.05 0.03,0 0.05,-0.02 0.05,-0.05 0,-0.03 -0.02,-0.05 -0.05,-0.05 -0.03,0 -0.05,0.02 -0.05,0.05z"/>
     <polygon class="fil2" points="6.65,4.27 6.78,4.29 6.69,4.52 "/>
     <path class="fil2" d="M6.43 4.21c0,0.03 0.02,0.05 0.05,0.05 0.03,0 0.05,-0.02 0.05,-0.05 0,-0.03 -0.02,-0.05 -0.05,-0.05 -0.03,0 -0.05,0.02 -0.05,0.05z"/>
     <polygon class="fil2" points="6.41,4.27 6.55,4.29 6.46,4.52 "/>
     <path class="fil2" d="M6.9 4.21c0,0.03 0.02,0.05 0.05,0.05 0.03,0 0.05,-0.02 0.05,-0.05 0,-0.03 -0.02,-0.05 -0.05,-0.05 -0.03,0 -0.05,0.02 -0.05,0.05z"/>
     <polygon class="fil2" points="6.88,4.27 7.02,4.29 6.93,4.52 "/>
     <path class="fil2" d="M3.95 4.21c0,0.03 0.02,0.05 0.05,0.05 0.03,0 0.05,-0.02 0.05,-0.05 0,-0.03 -0.02,-0.05 -0.05,-0.05 -0.03,0 -0.05,0.02 -0.05,0.05z"/>
     <polygon class="fil2" points="3.93,4.27 4.07,4.29 3.98,4.52 "/>
     <path class="fil2" d="M3.11 4.63c0,0.03 0.02,0.05 0.05,0.05 0.03,0 0.05,-0.02 0.05,-0.05 0,-0.03 -0.02,-0.05 -0.05,-0.05 -0.03,0 -0.05,0.02 -0.05,0.05z"/>
     <polygon class="fil2" points="3.09,4.69 3.23,4.71 3.14,4.94 "/>
     <path class="fil2" d="M2.87 4.63c0,0.03 0.03,0.05 0.05,0.05 0.03,0 0.05,-0.02 0.05,-0.05 0,-0.03 -0.02,-0.05 -0.05,-0.05 -0.02,0 -0.05,0.02 -0.05,0.05z"/>
     <polygon class="fil2" points="2.85,4.69 2.99,4.71 2.9,4.94 "/>
     <path class="fil2" d="M2.63 4.63c0,0.03 0.02,0.05 0.05,0.05 0.03,0 0.05,-0.02 0.05,-0.05 0,-0.03 -0.02,-0.05 -0.05,-0.05 -0.03,0 -0.05,0.02 -0.05,0.05z"/>
     <polygon class="fil2" points="2.61,4.69 2.75,4.71 2.66,4.94 "/>
     <path class="fil2" d="M2.39 4.63c0,0.03 0.02,0.05 0.05,0.05 0.03,0 0.05,-0.02 0.05,-0.05 0,-0.03 -0.02,-0.05 -0.05,-0.05 -0.03,0 -0.05,0.02 -0.05,0.05z"/>
     <polygon class="fil2" points="2.37,4.69 2.51,4.71 2.41,4.94 "/>
     <path class="fil2" d="M3.6 4.63c0,0.03 0.02,0.05 0.05,0.05 0.03,0 0.05,-0.02 0.05,-0.05 0,-0.03 -0.02,-0.05 -0.05,-0.05 -0.03,0 -0.05,0.02 -0.05,0.05z"/>
     <polygon class="fil2" points="3.58,4.69 3.72,4.71 3.63,4.94 "/>
     <path class="fil2" d="M3.36 4.63c0,0.03 0.02,0.05 0.05,0.05 0.03,0 0.05,-0.02 0.05,-0.05 0,-0.03 -0.02,-0.05 -0.05,-0.05 -0.03,0 -0.05,0.02 -0.05,0.05z"/>
     <polygon class="fil2" points="3.34,4.69 3.47,4.71 3.38,4.94 "/>
     <path class="fil2" d="M4.57 4.63c0,0.03 0.02,0.05 0.05,0.05 0.02,0 0.05,-0.02 0.05,-0.05 0,-0.03 -0.03,-0.05 -0.05,-0.05 -0.03,0 -0.05,0.02 -0.05,0.05z"/>
     <polygon class="fil2" points="4.55,4.69 4.68,4.71 4.59,4.94 "/>
     <path class="fil2" d="M4.33 4.63c0,0.03 0.02,0.05 0.05,0.05 0.03,0 0.05,-0.02 0.05,-0.05 0,-0.03 -0.02,-0.05 -0.05,-0.05 -0.03,0 -0.05,0.02 -0.05,0.05z"/>
     <polygon class="fil2" points="4.31,4.69 4.44,4.71 4.35,4.94 "/>
     <path class="fil2" d="M4.09 4.63c0,0.03 0.02,0.05 0.05,0.05 0.02,0 0.05,-0.02 0.05,-0.05 0,-0.03 -0.03,-0.05 -0.05,-0.05 -0.03,0 -0.05,0.02 -0.05,0.05z"/>
     <polygon class="fil2" points="4.07,4.69 4.2,4.71 4.11,4.94 "/>
     <path class="fil2" d="M5.09 4.63c0,0.03 0.02,0.05 0.05,0.05 0.02,0 0.05,-0.02 0.05,-0.05 0,-0.03 -0.03,-0.05 -0.05,-0.05 -0.03,0 -0.05,0.02 -0.05,0.05z"/>
     <polygon class="fil2" points="5.07,4.69 5.2,4.71 5.11,4.94 "/>
     <path class="fil2" d="M4.83 4.63c0,0.03 0.02,0.05 0.05,0.05 0.03,0 0.05,-0.02 0.05,-0.05 0,-0.03 -0.02,-0.05 -0.05,-0.05 -0.03,0 -0.05,0.02 -0.05,0.05z"/>
     <polygon class="fil2" points="4.81,4.69 4.95,4.71 4.85,4.94 "/>
     <path class="fil2" d="M5.57 4.63c0,0.03 0.02,0.05 0.05,0.05 0.02,0 0.05,-0.02 0.05,-0.05 0,-0.03 -0.03,-0.05 -0.05,-0.05 -0.03,0 -0.05,0.02 -0.05,0.05z"/>
     <polygon class="fil2" points="5.55,4.69 5.68,4.71 5.59,4.94 "/>
     <path class="fil2" d="M5.33 4.63c0,0.03 0.02,0.05 0.05,0.05 0.03,0 0.05,-0.02 0.05,-0.05 0,-0.03 -0.02,-0.05 -0.05,-0.05 -0.03,0 -0.05,0.02 -0.05,0.05z"/>
     <polygon class="fil2" points="5.31,4.69 5.44,4.71 5.35,4.94 "/>
     <path class="fil2" d="M5.83 4.63c0,0.03 0.02,0.05 0.05,0.05 0.03,0 0.05,-0.02 0.05,-0.05 0,-0.03 -0.02,-0.05 -0.05,-0.05 -0.03,0 -0.05,0.02 -0.05,0.05z"/>
     <polygon class="fil2" points="5.81,4.69 5.94,4.71 5.85,4.94 "/>
     <path class="fil2" d="M6.09 4.63c0,0.03 0.02,0.05 0.05,0.05 0.03,0 0.05,-0.02 0.05,-0.05 0,-0.03 -0.02,-0.05 -0.05,-0.05 -0.03,0 -0.05,0.02 -0.05,0.05z"/>
     <polygon class="fil2" points="6.07,4.69 6.2,4.71 6.11,4.94 "/>
     <path class="fil2" d="M6.57 4.63c0,0.03 0.02,0.05 0.05,0.05 0.02,0 0.05,-0.02 0.05,-0.05 0,-0.03 -0.03,-0.05 -0.05,-0.05 -0.03,0 -0.05,0.02 -0.05,0.05z"/>
     <polygon class="fil2" points="6.55,4.69 6.68,4.71 6.59,4.94 "/>
     <path class="fil2" d="M6.33 4.63c0,0.03 0.02,0.05 0.05,0.05 0.03,0 0.05,-0.02 0.05,-0.05 0,-0.03 -0.02,-0.05 -0.05,-0.05 -0.03,0 -0.05,0.02 -0.05,0.05z"/>
     <polygon class="fil2" points="6.31,4.69 6.45,4.71 6.35,4.94 "/>
     <path class="fil2" d="M6.8 4.63c0,0.03 0.02,0.05 0.05,0.05 0.03,0 0.05,-0.02 0.05,-0.05 0,-0.03 -0.02,-0.05 -0.05,-0.05 -0.03,0 -0.05,0.02 -0.05,0.05z"/>
     <polygon class="fil2" points="6.78,4.69 6.92,4.71 6.82,4.94 "/>
     <path class="fil2" d="M3.85 4.63c0,0.03 0.02,0.05 0.05,0.05 0.03,0 0.05,-0.02 0.05,-0.05 0,-0.03 -0.02,-0.05 -0.05,-0.05 -0.03,0 -0.05,0.02 -0.05,0.05z"/>
     <polygon class="fil2" points="3.83,4.69 3.96,4.71 3.87,4.94 "/>
     <path class="fil2" d="M3.19 5.04c0,0.02 0.02,0.05 0.05,0.05 0.03,0 0.05,-0.03 0.05,-0.05 0,-0.03 -0.02,-0.05 -0.05,-0.05 -0.03,0 -0.05,0.02 -0.05,0.05z"/>
     <polygon class="fil2" points="3.17,5.09 3.3,5.12 3.21,5.34 "/>
     <path class="fil2" d="M2.95 5.04c0,0.02 0.02,0.05 0.05,0.05 0.03,0 0.05,-0.03 0.05,-0.05 0,-0.03 -0.02,-0.05 -0.05,-0.05 -0.03,0 -0.05,0.02 -0.05,0.05z"/>
     <polygon class="fil2" points="2.93,5.09 3.07,5.12 2.97,5.34 "/>
     <path class="fil2" d="M2.71 5.04c0,0.02 0.02,0.05 0.05,0.05 0.03,0 0.05,-0.03 0.05,-0.05 0,-0.03 -0.02,-0.05 -0.05,-0.05 -0.03,0 -0.05,0.02 -0.05,0.05z"/>
     <polygon class="fil2" points="2.69,5.09 2.82,5.12 2.73,5.34 "/>
     <path class="fil2" d="M2.47 5.04c0,0.02 0.02,0.05 0.05,0.05 0.02,0 0.05,-0.03 0.05,-0.05 0,-0.03 -0.03,-0.05 -0.05,-0.05 -0.03,0 -0.05,0.02 -0.05,0.05z"/>
     <polygon class="fil2" points="2.45,5.09 2.58,5.12 2.49,5.34 "/>
     <path class="fil2" d="M2.25 5.04c0,0.02 0.02,0.05 0.05,0.05 0.03,0 0.05,-0.03 0.05,-0.05 0,-0.03 -0.02,-0.05 -0.05,-0.05 -0.03,0 -0.05,0.02 -0.05,0.05z"/>
     <polygon class="fil2" points="2.23,5.09 2.37,5.12 2.28,5.34 "/>
     <path class="fil2" d="M3.68 5.04c0,0.02 0.02,0.05 0.05,0.05 0.03,0 0.05,-0.03 0.05,-0.05 0,-0.03 -0.02,-0.05 -0.05,-0.05 -0.03,0 -0.05,0.02 -0.05,0.05z"/>
     <polygon class="fil2" points="3.66,5.09 3.79,5.12 3.7,5.34 "/>
     <path class="fil2" d="M3.43 5.04c0,0.02 0.03,0.05 0.05,0.05 0.03,0 0.06,-0.03 0.06,-0.05 0,-0.03 -0.03,-0.05 -0.06,-0.05 -0.02,0 -0.05,0.02 -0.05,0.05z"/>
     <polygon class="fil2" points="3.42,5.09 3.55,5.12 3.46,5.34 "/>
     <path class="fil2" d="M4.64 5.04c0,0.02 0.02,0.05 0.05,0.05 0.03,0 0.05,-0.03 0.05,-0.05 0,-0.03 -0.02,-0.05 -0.05,-0.05 -0.03,0 -0.05,0.02 -0.05,0.05z"/>
     <polygon class="fil2" points="4.62,5.09 4.76,5.12 4.67,5.34 "/>
     <path class="fil2" d="M4.4 5.04c0,0.02 0.03,0.05 0.06,0.05 0.02,0 0.05,-0.03 0.05,-0.05 0,-0.03 -0.03,-0.05 -0.05,-0.05 -0.03,0 -0.06,0.02 -0.06,0.05z"/>
     <polygon class="fil2" points="4.39,5.09 4.52,5.12 4.43,5.34 "/>
     <path class="fil2" d="M4.16 5.04c0,0.02 0.02,0.05 0.05,0.05 0.03,0 0.05,-0.03 0.05,-0.05 0,-0.03 -0.02,-0.05 -0.05,-0.05 -0.03,0 -0.05,0.02 -0.05,0.05z"/>
     <polygon class="fil2" points="4.14,5.09 4.28,5.12 4.19,5.34 "/>
     <path class="fil2" d="M5.16 5.04c0,0.02 0.03,0.05 0.05,0.05 0.03,0 0.05,-0.03 0.05,-0.05 0,-0.03 -0.02,-0.05 -0.05,-0.05 -0.02,0 -0.05,0.02 -0.05,0.05z"/>
     <polygon class="fil2" points="5.14,5.09 5.28,5.12 5.19,5.34 "/>
     <path class="fil2" d="M4.91 5.04c0,0.02 0.02,0.05 0.05,0.05 0.02,0 0.05,-0.03 0.05,-0.05 0,-0.03 -0.03,-0.05 -0.05,-0.05 -0.03,0 -0.05,0.02 -0.05,0.05z"/>
     <polygon class="fil2" points="4.89,5.09 5.02,5.12 4.93,5.34 "/>
     <path class="fil2" d="M5.64 5.04c0,0.02 0.02,0.05 0.05,0.05 0.03,0 0.05,-0.03 0.05,-0.05 0,-0.03 -0.02,-0.05 -0.05,-0.05 -0.03,0 -0.05,0.02 -0.05,0.05z"/>
     <polygon class="fil2" points="5.62,5.09 5.76,5.12 5.67,5.34 "/>
     <path class="fil2" d="M5.4 5.04c0,0.02 0.03,0.05 0.05,0.05 0.03,0 0.05,-0.03 0.05,-0.05 0,-0.03 -0.02,-0.05 -0.05,-0.05 -0.02,0 -0.05,0.02 -0.05,0.05z"/>
     <polygon class="fil2" points="5.38,5.09 5.52,5.12 5.43,5.34 "/>
     <path class="fil2" d="M5.9 5.04c0,0.02 0.03,0.05 0.05,0.05 0.03,0 0.06,-0.03 0.06,-0.05 0,-0.03 -0.03,-0.05 -0.06,-0.05 -0.02,0 -0.05,0.02 -0.05,0.05z"/>
     <polygon class="fil2" points="5.89,5.09 6.02,5.12 5.93,5.34 "/>
     <path class="fil2" d="M6.16 5.04c0,0.02 0.03,0.05 0.05,0.05 0.03,0 0.05,-0.03 0.05,-0.05 0,-0.03 -0.02,-0.05 -0.05,-0.05 -0.02,0 -0.05,0.02 -0.05,0.05z"/>
     <polygon class="fil2" points="6.14,5.09 6.28,5.12 6.19,5.34 "/>
     <path class="fil2" d="M6.64 5.04c0,0.02 0.03,0.05 0.05,0.05 0.03,0 0.05,-0.03 0.05,-0.05 0,-0.03 -0.02,-0.05 -0.05,-0.05 -0.02,0 -0.05,0.02 -0.05,0.05z"/>
     <polygon class="fil2" points="6.62,5.09 6.76,5.12 6.67,5.34 "/>
     <path class="fil2" d="M6.41 5.04c0,0.02 0.02,0.05 0.05,0.05 0.02,0 0.05,-0.03 0.05,-0.05 0,-0.03 -0.03,-0.05 -0.05,-0.05 -0.03,0 -0.05,0.02 -0.05,0.05z"/>
     <polygon class="fil2" points="6.39,5.09 6.52,5.12 6.43,5.34 "/>
     <path class="fil2" d="M6.88 5.04c0,0.02 0.02,0.05 0.05,0.05 0.02,0 0.05,-0.03 0.05,-0.05 0,-0.03 -0.03,-0.05 -0.05,-0.05 -0.03,0 -0.05,0.02 -0.05,0.05z"/>
     <polygon class="fil2" points="6.86,5.09 6.99,5.12 6.9,5.34 "/>
     <path class="fil2" d="M3.92 5.04c0,0.02 0.03,0.05 0.06,0.05 0.02,0 0.05,-0.03 0.05,-0.05 0,-0.03 -0.03,-0.05 -0.05,-0.05 -0.03,0 -0.06,0.02 -0.06,0.05z"/>
     <polygon class="fil2" points="3.91,5.09 4.04,5.12 3.95,5.34 "/>
     <path class="fil2" d="M3.28 5.45c0,0.03 0.02,0.05 0.05,0.05 0.03,0 0.05,-0.02 0.05,-0.05 0,-0.03 -0.02,-0.05 -0.05,-0.05 -0.03,0 -0.05,0.02 -0.05,0.05z"/>
     <polygon class="fil2" points="3.26,5.51 3.39,5.53 3.3,5.75 "/>
     <path class="fil2" d="M3.04 5.45c0,0.03 0.02,0.05 0.05,0.05 0.03,0 0.05,-0.02 0.05,-0.05 0,-0.03 -0.02,-0.05 -0.05,-0.05 -0.03,0 -0.05,0.02 -0.05,0.05z"/>
     <polygon class="fil2" points="3.02,5.51 3.16,5.53 3.07,5.75 "/>
     <path class="fil2" d="M2.8 5.45c0,0.03 0.02,0.05 0.05,0.05 0.03,0 0.05,-0.02 0.05,-0.05 0,-0.03 -0.02,-0.05 -0.05,-0.05 -0.03,0 -0.05,0.02 -0.05,0.05z"/>
     <polygon class="fil2" points="2.78,5.51 2.91,5.53 2.82,5.75 "/>
     <path class="fil2" d="M2.56 5.45c0,0.03 0.02,0.05 0.05,0.05 0.03,0 0.05,-0.02 0.05,-0.05 0,-0.03 -0.02,-0.05 -0.05,-0.05 -0.03,0 -0.05,0.02 -0.05,0.05z"/>
     <polygon class="fil2" points="2.54,5.51 2.67,5.53 2.58,5.75 "/>
     <path class="fil2" d="M2.34 5.45c0,0.03 0.02,0.05 0.05,0.05 0.03,0 0.05,-0.02 0.05,-0.05 0,-0.03 -0.02,-0.05 -0.05,-0.05 -0.03,0 -0.05,0.02 -0.05,0.05z"/>
     <polygon class="fil2" points="2.32,5.51 2.46,5.53 2.37,5.75 "/>
     <path class="fil2" d="M3.77 5.45c0,0.03 0.02,0.05 0.05,0.05 0.03,0 0.05,-0.02 0.05,-0.05 0,-0.03 -0.02,-0.05 -0.05,-0.05 -0.03,0 -0.05,0.02 -0.05,0.05z"/>
     <polygon class="fil2" points="3.75,5.51 3.88,5.53 3.79,5.75 "/>
     <path class="fil2" d="M3.53 5.45c0,0.03 0.02,0.05 0.05,0.05 0.02,0 0.05,-0.02 0.05,-0.05 0,-0.03 -0.03,-0.05 -0.05,-0.05 -0.03,0 -0.05,0.02 -0.05,0.05z"/>
     <polygon class="fil2" points="3.51,5.51 3.64,5.53 3.55,5.75 "/>
     <path class="fil2" d="M4.73 5.45c0,0.03 0.03,0.05 0.05,0.05 0.03,0 0.05,-0.02 0.05,-0.05 0,-0.03 -0.02,-0.05 -0.05,-0.05 -0.02,0 -0.05,0.02 -0.05,0.05z"/>
     <polygon class="fil2" points="4.71,5.51 4.85,5.53 4.76,5.75 "/>
     <path class="fil2" d="M4.5 5.45c0,0.03 0.02,0.05 0.05,0.05 0.02,0 0.05,-0.02 0.05,-0.05 0,-0.03 -0.03,-0.05 -0.05,-0.05 -0.03,0 -0.05,0.02 -0.05,0.05z"/>
     <polygon class="fil2" points="4.48,5.51 4.61,5.53 4.52,5.75 "/>
     <path class="fil2" d="M4.25 5.45c0,0.03 0.03,0.05 0.05,0.05 0.03,0 0.05,-0.02 0.05,-0.05 0,-0.03 -0.02,-0.05 -0.05,-0.05 -0.02,0 -0.05,0.02 -0.05,0.05z"/>
     <polygon class="fil2" points="4.23,5.51 4.37,5.53 4.28,5.75 "/>
     <path class="fil2" d="M5.25 5.45c0,0.03 0.03,0.05 0.05,0.05 0.03,0 0.05,-0.02 0.05,-0.05 0,-0.03 -0.02,-0.05 -0.05,-0.05 -0.02,0 -0.05,0.02 -0.05,0.05z"/>
     <polygon class="fil2" points="5.23,5.51 5.37,5.53 5.28,5.75 "/>
     <path class="fil2" d="M5 5.45c0,0.03 0.02,0.05 0.05,0.05 0.02,0 0.05,-0.02 0.05,-0.05 0,-0.03 -0.03,-0.05 -0.05,-0.05 -0.03,0 -0.05,0.02 -0.05,0.05z"/>
     <polygon class="fil2" points="4.98,5.51 5.11,5.53 5.02,5.75 "/>
     <path class="fil2" d="M5.73 5.45c0,0.03 0.03,0.05 0.05,0.05 0.03,0 0.05,-0.02 0.05,-0.05 0,-0.03 -0.02,-0.05 -0.05,-0.05 -0.02,0 -0.05,0.02 -0.05,0.05z"/>
     <polygon class="fil2" points="5.71,5.51 5.85,5.53 5.76,5.75 "/>
     <path class="fil2" d="M5.5 5.45c0,0.03 0.02,0.05 0.05,0.05 0.02,0 0.05,-0.02 0.05,-0.05 0,-0.03 -0.03,-0.05 -0.05,-0.05 -0.03,0 -0.05,0.02 -0.05,0.05z"/>
     <polygon class="fil2" points="5.48,5.51 5.61,5.53 5.52,5.75 "/>
     <path class="fil2" d="M6 5.45c0,0.03 0.02,0.05 0.05,0.05 0.02,0 0.05,-0.02 0.05,-0.05 0,-0.03 -0.03,-0.05 -0.05,-0.05 -0.03,0 -0.05,0.02 -0.05,0.05z"/>
     <polygon class="fil2" points="5.98,5.51 6.11,5.53 6.02,5.75 "/>
     <path class="fil2" d="M6.26 5.45c0,0.03 0.02,0.05 0.05,0.05 0.02,0 0.05,-0.02 0.05,-0.05 0,-0.03 -0.03,-0.05 -0.05,-0.05 -0.03,0 -0.05,0.02 -0.05,0.05z"/>
     <polygon class="fil2" points="6.24,5.51 6.37,5.53 6.28,5.75 "/>
     <path class="fil2" d="M6.73 5.45c0,0.03 0.03,0.05 0.05,0.05 0.03,0 0.05,-0.02 0.05,-0.05 0,-0.03 -0.02,-0.05 -0.05,-0.05 -0.02,0 -0.05,0.02 -0.05,0.05z"/>
     <polygon class="fil2" points="6.71,5.51 6.85,5.53 6.76,5.75 "/>
     <path class="fil2" d="M6.5 5.45c0,0.03 0.02,0.05 0.05,0.05 0.02,0 0.05,-0.02 0.05,-0.05 0,-0.03 -0.03,-0.05 -0.05,-0.05 -0.03,0 -0.05,0.02 -0.05,0.05z"/>
     <polygon class="fil2" points="6.48,5.51 6.61,5.53 6.52,5.75 "/>
     <path class="fil2" d="M4.02 5.45c0,0.03 0.02,0.05 0.05,0.05 0.02,0 0.05,-0.02 0.05,-0.05 0,-0.03 -0.03,-0.05 -0.05,-0.05 -0.03,0 -0.05,0.02 -0.05,0.05z"/>
     <polygon class="fil2" points="4,5.51 4.13,5.53 4.04,5.75 "/>
     <path class="fil2" d="M3.39 5.85c0,0.03 0.02,0.05 0.05,0.05 0.02,0 0.05,-0.02 0.05,-0.05 0,-0.03 -0.03,-0.05 -0.05,-0.05 -0.03,0 -0.05,0.02 -0.05,0.05z"/>
     <polygon class="fil2" points="3.37,5.91 3.5,5.93 3.41,6.16 "/>
     <path class="fil2" d="M3.15 5.85c0,0.03 0.02,0.05 0.05,0.05 0.03,0 0.05,-0.02 0.05,-0.05 0,-0.03 -0.02,-0.05 -0.05,-0.05 -0.03,0 -0.05,0.02 -0.05,0.05z"/>
     <polygon class="fil2" points="3.13,5.91 3.27,5.93 3.17,6.16 "/>
     <path class="fil2" d="M2.91 5.85c0,0.03 0.02,0.05 0.05,0.05 0.02,0 0.05,-0.02 0.05,-0.05 0,-0.03 -0.03,-0.05 -0.05,-0.05 -0.03,0 -0.05,0.02 -0.05,0.05z"/>
     <polygon class="fil2" points="2.89,5.91 3.02,5.93 2.93,6.16 "/>
     <path class="fil2" d="M2.67 5.85c0,0.03 0.02,0.05 0.05,0.05 0.02,0 0.05,-0.02 0.05,-0.05 0,-0.03 -0.03,-0.05 -0.05,-0.05 -0.03,0 -0.05,0.02 -0.05,0.05z"/>
     <polygon class="fil2" points="2.65,5.91 2.78,5.93 2.69,6.16 "/>
     <path class="fil2" d="M2.45 5.85c0,0.03 0.02,0.05 0.05,0.05 0.03,0 0.05,-0.02 0.05,-0.05 0,-0.03 -0.02,-0.05 -0.05,-0.05 -0.03,0 -0.05,0.02 -0.05,0.05z"/>
     <polygon class="fil2" points="2.43,5.91 2.57,5.93 2.47,6.16 "/>
     <path class="fil2" d="M2.22 5.85c0,0.03 0.02,0.05 0.05,0.05 0.03,0 0.05,-0.02 0.05,-0.05 0,-0.03 -0.02,-0.05 -0.05,-0.05 -0.03,0 -0.05,0.02 -0.05,0.05z"/>
     <polygon class="fil2" points="2.2,5.91 2.34,5.93 2.24,6.16 "/>
     <path class="fil2" d="M3.88 5.85c0,0.03 0.02,0.05 0.05,0.05 0.02,0 0.05,-0.02 0.05,-0.05 0,-0.03 -0.03,-0.05 -0.05,-0.05 -0.03,0 -0.05,0.02 -0.05,0.05z"/>
     <polygon class="fil2" points="3.86,5.91 3.99,5.93 3.9,6.16 "/>
     <path class="fil2" d="M3.63 5.85c0,0.03 0.03,0.05 0.05,0.05 0.03,0 0.05,-0.02 0.05,-0.05 0,-0.03 -0.02,-0.05 -0.05,-0.05 -0.02,0 -0.05,0.02 -0.05,0.05z"/>
     <polygon class="fil2" points="3.61,5.91 3.75,5.93 3.66,6.16 "/>
     <path class="fil2" d="M4.84 5.85c0,0.03 0.02,0.05 0.05,0.05 0.03,0 0.05,-0.02 0.05,-0.05 0,-0.03 -0.02,-0.05 -0.05,-0.05 -0.03,0 -0.05,0.02 -0.05,0.05z"/>
     <polygon class="fil2" points="4.82,5.91 4.96,5.93 4.87,6.16 "/>
     <path class="fil2" d="M4.6 5.85c0,0.03 0.03,0.05 0.05,0.05 0.03,0 0.05,-0.02 0.05,-0.05 0,-0.03 -0.02,-0.05 -0.05,-0.05 -0.02,0 -0.05,0.02 -0.05,0.05z"/>
     <polygon class="fil2" points="4.58,5.91 4.72,5.93 4.63,6.16 "/>
     <path class="fil2" d="M4.36 5.85c0,0.03 0.02,0.05 0.05,0.05 0.03,0 0.05,-0.02 0.05,-0.05 0,-0.03 -0.02,-0.05 -0.05,-0.05 -0.03,0 -0.05,0.02 -0.05,0.05z"/>
     <polygon class="fil2" points="4.34,5.91 4.48,5.93 4.39,6.16 "/>
     <path class="fil2" d="M5.36 5.85c0,0.03 0.02,0.05 0.05,0.05 0.03,0 0.05,-0.02 0.05,-0.05 0,-0.03 -0.02,-0.05 -0.05,-0.05 -0.03,0 -0.05,0.02 -0.05,0.05z"/>
     <polygon class="fil2" points="5.34,5.91 5.48,5.93 5.39,6.16 "/>
     <path class="fil2" d="M5.1 5.85c0,0.03 0.03,0.05 0.05,0.05 0.03,0 0.05,-0.02 0.05,-0.05 0,-0.03 -0.02,-0.05 -0.05,-0.05 -0.02,0 -0.05,0.02 -0.05,0.05z"/>
     <polygon class="fil2" points="5.09,5.91 5.22,5.93 5.13,6.16 "/>
     <path class="fil2" d="M5.84 5.85c0,0.03 0.02,0.05 0.05,0.05 0.03,0 0.05,-0.02 0.05,-0.05 0,-0.03 -0.02,-0.05 -0.05,-0.05 -0.03,0 -0.05,0.02 -0.05,0.05z"/>
     <polygon class="fil2" points="5.82,5.91 5.96,5.93 5.87,6.16 "/>
     <path class="fil2" d="M5.6 5.85c0,0.03 0.03,0.05 0.05,0.05 0.03,0 0.05,-0.02 0.05,-0.05 0,-0.03 -0.02,-0.05 -0.05,-0.05 -0.02,0 -0.05,0.02 -0.05,0.05z"/>
     <polygon class="fil2" points="5.58,5.91 5.72,5.93 5.63,6.16 "/>
     <path class="fil2" d="M6.1 5.85c0,0.03 0.03,0.05 0.05,0.05 0.03,0 0.05,-0.02 0.05,-0.05 0,-0.03 -0.02,-0.05 -0.05,-0.05 -0.02,0 -0.05,0.02 -0.05,0.05z"/>
     <polygon class="fil2" points="6.08,5.91 6.22,5.93 6.13,6.16 "/>
     <path class="fil2" d="M6.36 5.85c0,0.03 0.03,0.05 0.05,0.05 0.03,0 0.05,-0.02 0.05,-0.05 0,-0.03 -0.02,-0.05 -0.05,-0.05 -0.02,0 -0.05,0.02 -0.05,0.05z"/>
     <polygon class="fil2" points="6.34,5.91 6.48,5.93 6.39,6.16 "/>
     <path class="fil2" d="M6.84 5.85c0,0.03 0.02,0.05 0.05,0.05 0.03,0 0.05,-0.02 0.05,-0.05 0,-0.03 -0.02,-0.05 -0.05,-0.05 -0.03,0 -0.05,0.02 -0.05,0.05z"/>
     <polygon class="fil2" points="6.82,5.91 6.96,5.93 6.87,6.16 "/>
     <path class="fil2" d="M6.6 5.85c0,0.03 0.03,0.05 0.05,0.05 0.03,0 0.05,-0.02 0.05,-0.05 0,-0.03 -0.02,-0.05 -0.05,-0.05 -0.02,0 -0.05,0.02 -0.05,0.05z"/>
     <polygon class="fil2" points="6.59,5.91 6.72,5.93 6.63,6.16 "/>
     <path class="fil2" d="M4.12 5.85c0,0.03 0.03,0.05 0.05,0.05 0.03,0 0.05,-0.02 0.05,-0.05 0,-0.03 -0.02,-0.05 -0.05,-0.05 -0.02,0 -0.05,0.02 -0.05,0.05z"/>
     <polygon class="fil2" points="4.1,5.91 4.24,5.93 4.15,6.16 "/>
     <path class="fil2" d="M3.48 6.24c0,0.02 0.02,0.05 0.05,0.05 0.02,0 0.05,-0.03 0.05,-0.05 0,-0.03 -0.03,-0.05 -0.05,-0.05 -0.03,0 -0.05,0.02 -0.05,0.05z"/>
     <polygon class="fil2" points="3.46,6.29 3.59,6.32 3.5,6.54 "/>
     <path class="fil2" d="M3.24 6.24c0,0.02 0.02,0.05 0.05,0.05 0.03,0 0.05,-0.03 0.05,-0.05 0,-0.03 -0.02,-0.05 -0.05,-0.05 -0.03,0 -0.05,0.02 -0.05,0.05z"/>
     <polygon class="fil2" points="3.22,6.29 3.35,6.32 3.26,6.54 "/>
     <path class="fil2" d="M3 6.24c0,0.02 0.02,0.05 0.05,0.05 0.02,0 0.05,-0.03 0.05,-0.05 0,-0.03 -0.03,-0.05 -0.05,-0.05 -0.03,0 -0.05,0.02 -0.05,0.05z"/>
     <polygon class="fil2" points="2.98,6.29 3.11,6.32 3.02,6.54 "/>
     <path class="fil2" d="M2.75 6.24c0,0.02 0.03,0.05 0.05,0.05 0.03,0 0.06,-0.03 0.06,-0.05 0,-0.03 -0.03,-0.05 -0.06,-0.05 -0.02,0 -0.05,0.02 -0.05,0.05z"/>
     <polygon class="fil2" points="2.74,6.29 2.87,6.32 2.78,6.54 "/>
     <path class="fil2" d="M2.54 6.24c0,0.02 0.02,0.05 0.05,0.05 0.03,0 0.05,-0.03 0.05,-0.05 0,-0.03 -0.02,-0.05 -0.05,-0.05 -0.03,0 -0.05,0.02 -0.05,0.05z"/>
     <polygon class="fil2" points="2.52,6.29 2.66,6.32 2.56,6.54 "/>
     <path class="fil2" d="M3.97 6.24c0,0.02 0.02,0.05 0.05,0.05 0.02,0 0.05,-0.03 0.05,-0.05 0,-0.03 -0.03,-0.05 -0.05,-0.05 -0.03,0 -0.05,0.02 -0.05,0.05z"/>
     <polygon class="fil2" points="3.95,6.29 4.08,6.32 3.99,6.54 "/>
     <path class="fil2" d="M3.72 6.24c0,0.02 0.03,0.05 0.05,0.05 0.03,0 0.05,-0.03 0.05,-0.05 0,-0.03 -0.02,-0.05 -0.05,-0.05 -0.02,0 -0.05,0.02 -0.05,0.05z"/>
     <polygon class="fil2" points="3.7,6.29 3.84,6.32 3.75,6.54 "/>
     <path class="fil2" d="M4.93 6.24c0,0.02 0.02,0.05 0.05,0.05 0.03,0 0.05,-0.03 0.05,-0.05 0,-0.03 -0.02,-0.05 -0.05,-0.05 -0.03,0 -0.05,0.02 -0.05,0.05z"/>
     <polygon class="fil2" points="4.91,6.29 5.05,6.32 4.96,6.54 "/>
     <path class="fil2" d="M4.69 6.24c0,0.02 0.03,0.05 0.05,0.05 0.03,0 0.05,-0.03 0.05,-0.05 0,-0.03 -0.02,-0.05 -0.05,-0.05 -0.02,0 -0.05,0.02 -0.05,0.05z"/>
     <polygon class="fil2" points="4.67,6.29 4.81,6.32 4.72,6.54 "/>
     <path class="fil2" d="M4.45 6.24c0,0.02 0.02,0.05 0.05,0.05 0.03,0 0.05,-0.03 0.05,-0.05 0,-0.03 -0.02,-0.05 -0.05,-0.05 -0.03,0 -0.05,0.02 -0.05,0.05z"/>
     <polygon class="fil2" points="4.43,6.29 4.57,6.32 4.48,6.54 "/>
     <path class="fil2" d="M5.45 6.24c0,0.02 0.02,0.05 0.05,0.05 0.03,0 0.05,-0.03 0.05,-0.05 0,-0.03 -0.02,-0.05 -0.05,-0.05 -0.03,0 -0.05,0.02 -0.05,0.05z"/>
     <polygon class="fil2" points="5.43,6.29 5.57,6.32 5.48,6.54 "/>
     <path class="fil2" d="M5.19 6.24c0,0.02 0.03,0.05 0.05,0.05 0.03,0 0.05,-0.03 0.05,-0.05 0,-0.03 -0.02,-0.05 -0.05,-0.05 -0.02,0 -0.05,0.02 -0.05,0.05z"/>
     <polygon class="fil2" points="5.17,6.29 5.31,6.32 5.22,6.54 "/>
     <path class="fil2" d="M5.93 6.24c0,0.02 0.02,0.05 0.05,0.05 0.03,0 0.05,-0.03 0.05,-0.05 0,-0.03 -0.02,-0.05 -0.05,-0.05 -0.03,0 -0.05,0.02 -0.05,0.05z"/>
     <polygon class="fil2" points="5.91,6.29 6.05,6.32 5.95,6.54 "/>
     <path class="fil2" d="M5.69 6.24c0,0.02 0.03,0.05 0.05,0.05 0.03,0 0.05,-0.03 0.05,-0.05 0,-0.03 -0.02,-0.05 -0.05,-0.05 -0.02,0 -0.05,0.02 -0.05,0.05z"/>
     <polygon class="fil2" points="5.67,6.29 5.81,6.32 5.72,6.54 "/>
     <path class="fil2" d="M4.21 6.24c0,0.02 0.03,0.05 0.05,0.05 0.03,0 0.05,-0.03 0.05,-0.05 0,-0.03 -0.02,-0.05 -0.05,-0.05 -0.02,0 -0.05,0.02 -0.05,0.05z"/>
     <polygon class="fil2" points="4.19,6.29 4.33,6.32 4.24,6.54 "/>
     <path class="fil2" d="M3.6 6.63c0,0.02 0.02,0.05 0.05,0.05 0.03,0 0.05,-0.03 0.05,-0.05 0,-0.03 -0.02,-0.05 -0.05,-0.05 -0.03,0 -0.05,0.02 -0.05,0.05z"/>
     <polygon class="fil2" points="3.58,6.68 3.71,6.7 3.62,6.93 "/>
     <path class="fil2" d="M3.36 6.63c0,0.02 0.02,0.05 0.05,0.05 0.03,0 0.05,-0.03 0.05,-0.05 0,-0.03 -0.02,-0.05 -0.05,-0.05 -0.03,0 -0.05,0.02 -0.05,0.05z"/>
     <polygon class="fil2" points="3.34,6.68 3.48,6.7 3.38,6.93 "/>
     <path class="fil2" d="M3.12 6.63c0,0.02 0.02,0.05 0.05,0.05 0.03,0 0.05,-0.03 0.05,-0.05 0,-0.03 -0.02,-0.05 -0.05,-0.05 -0.03,0 -0.05,0.02 -0.05,0.05z"/>
     <polygon class="fil2" points="3.1,6.68 3.23,6.7 3.14,6.93 "/>
     <path class="fil2" d="M2.88 6.63c0,0.02 0.02,0.05 0.05,0.05 0.02,0 0.05,-0.03 0.05,-0.05 0,-0.03 -0.03,-0.05 -0.05,-0.05 -0.03,0 -0.05,0.02 -0.05,0.05z"/>
     <polygon class="fil2" points="2.86,6.68 2.99,6.7 2.9,6.93 "/>
     <path class="fil2" d="M4.09 6.63c0,0.02 0.02,0.05 0.05,0.05 0.03,0 0.05,-0.03 0.05,-0.05 0,-0.03 -0.02,-0.05 -0.05,-0.05 -0.03,0 -0.05,0.02 -0.05,0.05z"/>
     <polygon class="fil2" points="4.07,6.68 4.2,6.7 4.11,6.93 "/>
     <path class="fil2" d="M3.85 6.63c0,0.02 0.02,0.05 0.05,0.05 0.02,0 0.05,-0.03 0.05,-0.05 0,-0.03 -0.03,-0.05 -0.05,-0.05 -0.03,0 -0.05,0.02 -0.05,0.05z"/>
     <polygon class="fil2" points="3.83,6.68 3.96,6.7 3.87,6.93 "/>
     <path class="fil2" d="M4.82 6.63c0,0.02 0.02,0.05 0.05,0.05 0.02,0 0.05,-0.03 0.05,-0.05 0,-0.03 -0.03,-0.05 -0.05,-0.05 -0.03,0 -0.05,0.02 -0.05,0.05z"/>
     <polygon class="fil2" points="4.8,6.68 4.93,6.7 4.84,6.93 "/>
     <path class="fil2" d="M4.57 6.63c0,0.02 0.03,0.05 0.05,0.05 0.03,0 0.05,-0.03 0.05,-0.05 0,-0.03 -0.02,-0.05 -0.05,-0.05 -0.02,0 -0.05,0.02 -0.05,0.05z"/>
     <polygon class="fil2" points="4.55,6.68 4.69,6.7 4.6,6.93 "/>
     <path class="fil2" d="M4.34 6.63c0,0.02 0.02,0.05 0.05,0.05 0.02,0 0.05,-0.03 0.05,-0.05 0,-0.03 -0.03,-0.05 -0.05,-0.05 -0.03,0 -0.05,0.02 -0.05,0.05z"/>
     <polygon class="fil2" points="4.32,6.68 4.45,6.7 4.36,6.93 "/>
     <path class="fil2" d="M3.69 6.98c0,0.03 0.03,0.05 0.05,0.05 0.03,0 0.05,-0.02 0.05,-0.05 0,-0.03 -0.02,-0.05 -0.05,-0.05 -0.02,0 -0.05,0.02 -0.05,0.05z"/>
     <polygon class="fil2" points="3.67,7.04 3.81,7.06 3.72,7.29 "/>
     <path class="fil2" d="M3.46 6.98c0,0.03 0.02,0.05 0.05,0.05 0.02,0 0.05,-0.02 0.05,-0.05 0,-0.03 -0.03,-0.05 -0.05,-0.05 -0.03,0 -0.05,0.02 -0.05,0.05z"/>
     <polygon class="fil2" points="3.44,7.04 3.57,7.06 3.48,7.29 "/>
     <path class="fil2" d="M3.21 6.98c0,0.03 0.03,0.05 0.05,0.05 0.03,0 0.05,-0.02 0.05,-0.05 0,-0.03 -0.02,-0.05 -0.05,-0.05 -0.02,0 -0.05,0.02 -0.05,0.05z"/>
     <polygon class="fil2" points="3.19,7.04 3.33,7.06 3.24,7.29 "/>
     <path class="fil2" d="M4.18 6.98c0,0.03 0.03,0.05 0.05,0.05 0.03,0 0.05,-0.02 0.05,-0.05 0,-0.03 -0.02,-0.05 -0.05,-0.05 -0.02,0 -0.05,0.02 -0.05,0.05z"/>
     <polygon class="fil2" points="4.16,7.04 4.3,7.06 4.21,7.29 "/>
     <path class="fil2" d="M3.94 6.98c0,0.03 0.02,0.05 0.05,0.05 0.03,0 0.05,-0.02 0.05,-0.05 0,-0.03 -0.02,-0.05 -0.05,-0.05 -0.03,0 -0.05,0.02 -0.05,0.05z"/>
     <polygon class="fil2" points="3.92,7.04 4.06,7.06 3.97,7.29 "/>
     <path class="fil2" d="M3.76 7.35c0,0.03 0.03,0.05 0.05,0.05 0.03,0 0.05,-0.02 0.05,-0.05 0,-0.03 -0.02,-0.05 -0.05,-0.05 -0.02,0 -0.05,0.02 -0.05,0.05z"/>
     <polygon class="fil2" points="3.74,7.41 3.88,7.43 3.79,7.66 "/>
     <path class="fil2" d="M3.88 7.69c0,0.02 0.02,0.05 0.05,0.05 0.03,0 0.05,-0.03 0.05,-0.05 0,-0.03 -0.02,-0.05 -0.05,-0.05 -0.03,0 -0.05,0.02 -0.05,0.05z"/>
     <polygon class="fil2" points="3.86,7.74 3.99,7.76 3.9,7.99 "/>
     <path class="fil2" d="M3.54 7.35c0,0.03 0.02,0.05 0.05,0.05 0.03,0 0.05,-0.02 0.05,-0.05 0,-0.03 -0.02,-0.05 -0.05,-0.05 -0.03,0 -0.05,0.02 -0.05,0.05z"/>
     <polygon class="fil2" points="3.52,7.41 3.66,7.43 3.56,7.66 "/>
     <path class="fil2" d="M4.25 7.35c0,0.03 0.03,0.05 0.05,0.05 0.03,0 0.05,-0.02 0.05,-0.05 0,-0.03 -0.02,-0.05 -0.05,-0.05 -0.02,0 -0.05,0.02 -0.05,0.05z"/>
     <polygon class="fil2" points="4.23,7.41 4.37,7.43 4.28,7.66 "/>
     <path class="fil2" d="M4.01 7.35c0,0.03 0.02,0.05 0.05,0.05 0.03,0 0.05,-0.02 0.05,-0.05 0,-0.03 -0.02,-0.05 -0.05,-0.05 -0.03,0 -0.05,0.02 -0.05,0.05z"/>
     <polygon class="fil2" points="3.99,7.41 4.13,7.43 4.03,7.66 "/>
     <path class="fil2" d="M4.43 6.98c0,0.03 0.02,0.05 0.05,0.05 0.03,0 0.05,-0.02 0.05,-0.05 0,-0.03 -0.02,-0.05 -0.05,-0.05 -0.03,0 -0.05,0.02 -0.05,0.05z"/>
     <polygon class="fil2" points="4.41,7.04 4.55,7.06 4.46,7.29 "/>
     <polygon class="fil2" points="3.35,2.7 3.49,2.72 3.4,2.95 "/>
     <polygon class="fil2" points="4.63,2.34 4.76,2.37 4.67,2.59 "/>
    </g>
   </g>
   <path class="fil1" d="M2.77 1.14c-0.01,-0.07 -0.08,-0.12 -0.15,-0.11l-0.16 0.03c-0.02,0 -0.02,0.01 -0.02,0.02l0.04 0.25c0,0.01 0.01,0.01 0.02,0.01l0.16 -0.03c0.07,-0.01 0.12,-0.08 0.11,-0.15l0 -0.02zm-0.07 0.37l-0.17 0.03c-0.01,0 -0.01,0 -0.01,0.02l0.07 0.46c0.01,0.01 0,0.02 -0.01,0.02l-0.17 0.03c-0.01,0 -0.02,-0.01 -0.02,-0.02l-0.19 -1.13c0,-0.02 0,-0.02 0.02,-0.02l0.37 -0.06c0.2,-0.04 0.35,0.08 0.39,0.29 0.03,0.18 -0.08,0.35 -0.28,0.38z"/>
   <path class="fil1" d="M3.57 1.03c-0.01,-0.07 -0.07,-0.13 -0.15,-0.12l-0.09 0.01c-0.07,0.01 -0.12,0.07 -0.11,0.15l0.05 0.55c0.01,0.08 0.08,0.13 0.15,0.12l0.09 0c0.07,-0.01 0.12,-0.08 0.11,-0.15l-0.05 -0.56zm-0.04 0.9l-0.09 0.01c-0.21,0.02 -0.36,-0.1 -0.37,-0.3l-0.06 -0.55c-0.02,-0.2 0.1,-0.35 0.31,-0.37l0.08 -0.01c0.21,-0.02 0.36,0.11 0.37,0.3l0.06 0.56c0.02,0.19 -0.1,0.34 -0.3,0.36z"/>
   <path class="fil1" d="M4.67 1.84l-0.64 0.03c-0.01,0 -0.02,-0.01 -0.02,-0.02l-0.04 -1.15c0,-0.01 0,-0.01 0.02,-0.01l0.17 -0.01c0.01,0 0.02,0 0.02,0.02l0.03 0.95c0,0.01 0.01,0.01 0.02,0.01l0.44 -0.01c0.01,0 0.02,0 0.02,0.02l0 0.16c0,0.01 0,0.01 -0.02,0.01z"/>
   <path class="fil1" d="M4.95 1.86l-0.18 -0.01c-0.01,0 -0.02,0 -0.01,-0.02l0.03 -1.14c0,-0.02 0,-0.02 0.02,-0.02l0.17 0c0.01,0 0.02,0.01 0.02,0.02l-0.04 1.15c0,0.01 0,0.02 -0.01,0.02z"/>
   <path class="fil1" d="M5.84 1.79c-0.06,0.08 -0.15,0.14 -0.3,0.13l-0.09 -0.01c-0.2,-0.02 -0.32,-0.16 -0.31,-0.36l0.05 -0.55c0.01,-0.2 0.15,-0.33 0.36,-0.31l0.09 0.01c0.15,0.01 0.23,0.08 0.28,0.17 0.01,0.03 0.03,0.06 0.02,0.08 0,0 0,0 -0.01,0.01l-0.15 0.06c-0.01,0.01 -0.01,0.01 -0.02,0.01 -0.01,0 -0.01,0 -0.01,-0.01 -0.03,-0.09 -0.08,-0.12 -0.13,-0.12l-0.08 -0.01c-0.08,-0.01 -0.14,0.05 -0.15,0.12l-0.04 0.56c-0.01,0.07 0.05,0.14 0.12,0.14l0.09 0.01c0.05,0 0.1,-0.02 0.14,-0.1 0,-0.01 0.01,-0.01 0.01,-0.01 0.01,0 0.02,0 0.02,0.01l0.14 0.09c0.01,0 0.01,0.01 0.01,0.01 0,0.01 -0.02,0.04 -0.04,0.07z"/>
   <path class="fil1" d="M6.16 1.96l-0.17 -0.02c-0.01,0 -0.02,0 -0.01,-0.02l0.14 -1.14c0,-0.01 0,-0.01 0.02,-0.01l0.17 0.02c0.01,0 0.02,0.01 0.02,0.02l-0.15 1.14c0,0.01 0,0.02 -0.02,0.01z"/>
   <path class="fil1" d="M6.81 1.59l-0.01 -0.23c0,-0.01 0,-0.09 0,-0.1l-0.01 0c0,0.01 -0.03,0.08 -0.04,0.09l-0.09 0.21c0,0.01 -0.01,0.03 -0.01,0.04 -0.01,0 0,0.01 0.01,0.02l0.13 0.02c0.02,0 0.03,-0.01 0.03,-0.01 0,-0.01 0,-0.03 -0.01,-0.04zm0.24 0.52l-0.18 -0.03c-0.01,0 -0.01,-0.01 -0.01,-0.02l-0.02 -0.2c0,-0.01 -0.01,-0.01 -0.02,-0.02l-0.25 -0.04c-0.01,0 -0.02,0 -0.02,0.01l-0.09 0.18c-0.01,0.01 -0.01,0.01 -0.02,0.01l-0.18 -0.03c-0.02,0 -0.02,-0.01 -0.02,-0.02 0,-0.01 0.01,-0.02 0.01,-0.03l0.53 -1.05c0,-0.01 0.01,-0.01 0.02,-0.01l0.13 0.03c0.01,0 0.01,0 0.01,0.01l0.13 1.16c0.01,0.02 0.01,0.03 0.01,0.04 0,0.01 -0.01,0.01 -0.03,0.01z"/>
  </g>
 </g>
</svg>
